<svg xmlns="http://www.w3.org/2000/svg" viewBox="0 0 500 446.25"><defs><style>.cls-1{fill:#e0e0e0;}.cls-2{fill:#ebebeb;}.cls-12,.cls-26,.cls-3,.cls-32,.cls-6{opacity:0.2;}.cls-18,.cls-19,.cls-28,.cls-4,.cls-6,.cls-8{fill:#fff;}.cls-5{fill:#f0f0f0;}.cls-29,.cls-7{opacity:0.3;}.cls-8{opacity:0.6;}.cls-26,.cls-28,.cls-29,.cls-8{isolation:isolate;}.cls-9{fill:#e6e6e6;}.cls-10{fill:#f5f5f5;}.cls-11{fill:#50d1bb;}.cls-13{fill:#60ba9e;}.cls-14{fill:#218975;}.cls-15{fill:#263238;}.cls-16{fill:#407bff;}.cls-17{fill:#10826c;}.cls-18{opacity:0.5;}.cls-19{stroke:#263238;}.cls-19,.cls-21{stroke-miterlimit:10;}.cls-20,.cls-21,.cls-27,.cls-32{fill:none;}.cls-20,.cls-21{stroke:#50d1bb;}.cls-20,.cls-27,.cls-32{stroke-linejoin:round;}.cls-20{stroke-width:0.75px;}.cls-22{fill:#fdfeff;}.cls-23{fill:#ffad4e;}.cls-24{fill:#ffbcb4;}.cls-25{fill:#ff3f3e;}.cls-27{stroke:#407bff;}.cls-27,.cls-32{stroke-linecap:round;stroke-width:0.5px;}.cls-28{opacity:0.1;}.cls-30{fill:#ff7200;}.cls-31{fill:#ef8274;}.cls-32{stroke:#000;}</style></defs><title>ll</title><g id="Background_complete" data-name="Background complete"><path class="cls-1" d="M448.22,360.84H267.48c-3.24,0-5.87-2.94-5.87-6.57v-295c0-3.62,2.63-6.57,5.87-6.57H448.22c3.24,0,5.87,3,5.87,6.57v295C454.09,357.9,451.46,360.84,448.22,360.84ZM267.48,52.93c-3.1,0-5.62,2.82-5.62,6.29v295c0,3.47,2.52,6.29,5.62,6.29H448.22c3.1,0,5.62-2.82,5.62-6.29v-295c0-3.47-2.52-6.29-5.62-6.29Z" transform="translate(0 -31.61)"/><path class="cls-1" d="M239.8,360.84H59.05c-3.23,0-5.86-2.94-5.86-6.57v-295c0-3.62,2.63-6.57,5.86-6.57H239.8c3.23,0,5.86,3,5.86,6.57v295C245.66,357.9,243,360.84,239.8,360.84ZM59.05,52.93c-3.1,0-5.61,2.82-5.61,6.29v295c0,3.47,2.51,6.29,5.61,6.29H239.8c3.09,0,5.61-2.82,5.61-6.29v-295c0-3.47-2.52-6.29-5.61-6.29Z" transform="translate(0 -31.61)"/><rect class="cls-1" y="374.6" width="500" height="0.25"/><rect class="cls-1" x="51.67" y="388.86" width="16.06" height="0.25"/><rect class="cls-1" x="170.35" y="386.15" width="53.53" height="0.25"/><rect class="cls-1" x="68.73" y="398.15" width="36.25" height="0.25"/><rect class="cls-1" x="378.35" y="386.02" width="43.19" height="0.25"/><rect class="cls-1" x="430.45" y="386.02" width="6.33" height="0.25"/><rect class="cls-1" x="316.21" y="392.25" width="53.89" height="0.25"/><path class="cls-2" d="M61.19,123.48C72,118,82.88,115.87,89,121.09c1.28,1.09,3,4.84,3.8,6.35,4.4,8.76-2.64,21.18-15.71,27.75s-27.24,4.8-31.64-4c-.64-1.27-2.56-4.86-2.73-6.26C41.74,136.75,50,129.1,61.19,123.48Z" transform="translate(0 -31.61)"/><g class="cls-3"><path class="cls-4" d="M71.66,151.45,66.6,152.9a9.92,9.92,0,0,1,2.9,5.21,38.51,38.51,0,0,0,5.21-1.76A11.52,11.52,0,0,0,71.66,151.45Z" transform="translate(0 -31.61)"/></g><g class="cls-3"><path class="cls-4" d="M88,138.74l-1.54,2.2c1.41,1.09,2.56,2.11,3.89,3.18a24.68,24.68,0,0,0,1.81-3.05C90.74,140.18,89.54,139.57,88,138.74Z" transform="translate(0 -31.61)"/></g><g class="cls-3"><path class="cls-4" d="M92.86,139.53a15.34,15.34,0,0,0,.91-9.7,27.88,27.88,0,0,0-3.1-1l-1.8,8.47A39.94,39.94,0,0,1,92.86,139.53Z" transform="translate(0 -31.61)"/></g><ellipse class="cls-5" cx="66.64" cy="134.32" rx="26.31" ry="17.74" transform="translate(-53.21 12.62) rotate(-26.68)"/><path class="cls-2" d="M61.36,123.4c9-4.54,18.79-3.37,21.79,2.62s-1.87,14.51-10.9,19-18.78,3.36-21.79-2.63S52.34,127.93,61.36,123.4Z" transform="translate(0 -31.61)"/><path class="cls-1" d="M72.08,143.87c-9,4.53-18.78,3.36-21.79-2.62a8.59,8.59,0,0,1-.71-2.07,8.57,8.57,0,0,0,.87,3.33c3,6,12.76,7.16,21.79,2.62,8-4,12.78-11.23,11.61-17C84.15,133.66,79.53,140.12,72.08,143.87Z" transform="translate(0 -31.61)"/><path class="cls-6" d="M81,137.92c.28.07,6.94.8,6.94.8l-1.45,2.15-7-1Z" transform="translate(0 -31.61)"/><path class="cls-6" d="M44.34,148c.18.24.37.46.56.68l2.2,2,0,0,19.55,2.39h0l5.13-1.69h0C71.78,151.4,47.24,148.64,44.34,148Z" transform="translate(0 -31.61)"/><path class="cls-6" d="M64.1,116.23c4.86.67,18.22,2.15,23.34,2.71C82.39,114.3,73.34,113.23,64.1,116.23Z" transform="translate(0 -31.61)"/><path class="cls-6" d="M82.28,136l6.54,1.34s2.7-5.38,2.61-8.13l-7.53-.93v0A11.66,11.66,0,0,1,82.28,136Z" transform="translate(0 -31.61)"/><path class="cls-6" d="M58.6,125l-8.38-.76a28.9,28.9,0,0,0-6.23,8l7.62-.18A22.66,22.66,0,0,1,58.6,125Z" transform="translate(0 -31.61)"/><path class="cls-1" d="M75.12,128.51l2.77-1.39.85,1.67L76,130.15a7.18,7.18,0,0,1,.12,5.17l-3.41.68-.31-.84a4.38,4.38,0,0,0,.36-3.38l-4.13,2.08c.27,2.19.4,4.74-3.14,6.51-2.63,1.32-5.53,1.16-7.31-1.27l-2.74,1.38-.85-1.68,2.7-1.35a6.77,6.77,0,0,1-.2-4.17l3.1-1.4.37.5a9.62,9.62,0,0,0,0,3.43l4.2-2.12c-.29-2.18-.4-4.69,3.09-6.45C70.46,126,73.33,126.11,75.12,128.51ZM65,135.72l-3.54,1.78A2.1,2.1,0,0,0,65,135.72Zm4.55-5.9a2,2,0,0,0-1.11,2.07l3.43-1.72A1.87,1.87,0,0,0,69.5,129.82Z" transform="translate(0 -31.61)"/><path class="cls-5" d="M74.86,127.68l2.79-1.4.84,1.68-2.71,1.36a7.25,7.25,0,0,1,.11,5.18l-3.51.61a6.36,6.36,0,0,0,.14-4.15l-4.16,2.09c.26,2.2.39,4.75-3.17,6.53-2.64,1.33-5.55,1.18-7.33-1.25l-2.77,1.39L54.25,138,57,136.67a6.69,6.69,0,0,1-.19-4.17l3.48-.7a6.25,6.25,0,0,0,0,3.22l4.23-2.12c-.29-2.19-.4-4.7,3.11-6.47C70.18,125.13,73.06,125.28,74.86,127.68ZM64.7,134.89l-3.53,1.77a2.1,2.1,0,0,0,3.53-1.77Zm4.55-5.9a2.05,2.05,0,0,0-1.11,2.07l3.43-1.73A1.87,1.87,0,0,0,69.25,129Z" transform="translate(0 -31.61)"/><path class="cls-1" d="M91.09,128.16c0,8.1-6.2,15.07-12.59,19.32-7.3,4.85-17,7.79-25.71,5.46a14.36,14.36,0,0,1-9.33-7c-.22-.43-.87-.05-.65.38,3.75,7.23,12.81,8.84,20.21,7.87a36.93,36.93,0,0,0,24.45-14.13,20.57,20.57,0,0,0,4.37-11.9.38.38,0,0,0-.75,0Z" transform="translate(0 -31.61)"/><path class="cls-2" d="M289,70.17c11.46,3.93,20.61,10.18,21.18,18.23.12,1.68-1.33,5.56-1.88,7.16-3.19,9.27-17,12.93-30.83,8.17S255,87.61,258.18,78.34c.46-1.35,1.69-5.23,2.57-6.33C265.92,65.53,277.18,66.1,289,70.17Z" transform="translate(0 -31.61)"/><g class="cls-3"><path class="cls-4" d="M276.32,97.21l-4.57-2.61a9.84,9.84,0,0,1-1.7,5.71,36.91,36.91,0,0,0,4.9,2.5A11.3,11.3,0,0,0,276.32,97.21Z" transform="translate(0 -31.61)"/></g><g class="cls-3"><path class="cls-4" d="M296.83,100l-2.64.44c.2,1.77.28,3.31.44,5a24.83,24.83,0,0,0,3.45-.83C297.72,103,297.32,101.68,296.83,100Z" transform="translate(0 -31.61)"/></g><g class="cls-3"><path class="cls-4" d="M299.67,104a15.29,15.29,0,0,0,7.57-6.12,28.16,28.16,0,0,0-1.47-2.9l-7.31,4.63A40.71,40.71,0,0,1,299.67,104Z" transform="translate(0 -31.61)"/></g><path class="cls-5" d="M290.83,64.85c13.74,4.73,22.3,16.07,19.11,25.33s-16.9,13-30.64,8.24S257,82.36,260.19,73.09,277.09,60.13,290.83,64.85Z" transform="translate(0 -31.61)"/><path class="cls-2" d="M289.18,70.23c9.56,3.28,15.54,11.08,13.36,17.41s-11.68,8.81-21.24,5.53-15.53-11.08-13.36-17.42S279.63,67,289.18,70.23Z" transform="translate(0 -31.61)"/><path class="cls-1" d="M282,92.2c-9.56-3.28-15.54-11.07-13.36-17.41a8.1,8.1,0,0,1,1-2,8.54,8.54,0,0,0-1.77,3c-2.18,6.33,3.8,14.13,13.36,17.41,8.5,2.92,17,1.29,20.25-3.57C297.78,93.7,289.93,94.91,282,92.2Z" transform="translate(0 -31.61)"/><path class="cls-6" d="M292.54,94.43c.14.26,4.28,5.52,4.28,5.52l-2.55.47L290,94.71Z" transform="translate(0 -31.61)"/><path class="cls-6" d="M259.66,75.29c0,.29-.07.58-.1.87l.12,3v0l12,15.64,0,0,4.79,2.5h0C276.44,97.25,261.26,77.78,259.66,75.29Z" transform="translate(0 -31.61)"/><path class="cls-6" d="M296.22,67.18c2.92,3.95,11.2,14.53,14.38,18.58C310.39,78.9,304.82,71.69,296.22,67.18Z" transform="translate(0 -31.61)"/><path class="cls-6" d="M294.83,94l3.61,5.61s5.73-1.84,7.64-3.82l-4.61-6h0A11.66,11.66,0,0,1,294.83,94Z" transform="translate(0 -31.61)"/><path class="cls-6" d="M286.11,69.37l-5.32-6.52a29,29,0,0,0-10,1.11l5.45,5.33A22.72,22.72,0,0,1,286.11,69.37Z" transform="translate(0 -31.61)"/><path class="cls-1" d="M295.15,83.64l2.93,1-.61,1.78-2.85-1A7.24,7.24,0,0,1,291,89.15l-2.87-2,.39-.8a4.43,4.43,0,0,0,2.67-2.11l-4.38-1.51c-1.38,1.73-3.11,3.6-6.86,2.32-2.77-1-4.68-3.14-4.19-6.11l-2.91-1,.61-1.78,2.86,1a6.72,6.72,0,0,1,2.83-3.06l3.18,1.24-.11.62a9.81,9.81,0,0,0-2.45,2.39l4.46,1.53c1.35-1.74,3.07-3.57,6.76-2.31C293.72,78.52,295.61,80.68,295.15,83.64Zm-12.27-2.23-3.74-1.28a2.1,2.1,0,0,0,3.74,1.28Zm7.4-.87a2.05,2.05,0,0,0-2.26.65l3.63,1.25A1.86,1.86,0,0,0,290.28,80.54Z" transform="translate(0 -31.61)"/><path class="cls-5" d="M295.55,82.87l2.95,1-.61,1.77-2.87-1a7.2,7.2,0,0,1-3.63,3.7l-2.87-2.08a6.32,6.32,0,0,0,3.05-2.81L287.17,82c-1.39,1.73-3.12,3.6-6.89,2.3-2.79-1-4.72-3.15-4.23-6.12l-2.92-1,.61-1.78,2.87,1a6.71,6.71,0,0,1,2.85-3.06l2.93,2a6.29,6.29,0,0,0-2.3,2.25l4.48,1.54c1.36-1.74,3.08-3.57,6.8-2.29C294.1,77.75,296,79.91,295.55,82.87ZM283.3,80.65l-3.74-1.29a2.1,2.1,0,0,0,3.74,1.29Zm7.4-.87a2.06,2.06,0,0,0-2.26.65l3.64,1.25A1.87,1.87,0,0,0,290.7,79.78Z" transform="translate(0 -31.61)"/><path class="cls-1" d="M306.56,94.81c-6.65,6.42-17.56,6.19-25.83,3.68-7.65-2.33-15.37-7.19-19.08-14.51a14,14,0,0,1-1.1-10.79c.15-.46-.57-.66-.73-.2-2.36,7.14,2,14.31,7.22,18.9a37.11,37.11,0,0,0,27.26,8.81c4.67-.47,9.36-2,12.79-5.35.35-.34-.18-.87-.53-.54Z" transform="translate(0 -31.61)"/><rect class="cls-2" x="29.64" y="328.07" width="54.6" height="11.97"/><g class="cls-7"><path class="cls-1" d="M34.3,360.3V371a.38.38,0,0,0,.75,0V360.3a.38.38,0,0,0-.75,0Z" transform="translate(0 -31.61)"/></g><g class="cls-7"><path class="cls-1" d="M38.81,360.3V371a.38.38,0,0,0,.75,0V360.3a.38.38,0,0,0-.75,0Z" transform="translate(0 -31.61)"/></g><g class="cls-7"><path class="cls-1" d="M43.26,360.3V371a.38.38,0,0,0,.75,0V360.3a.38.38,0,0,0-.75,0Z" transform="translate(0 -31.61)"/></g><g class="cls-7"><path class="cls-1" d="M47.71,360.3V371a.38.38,0,0,0,.75,0V360.3a.38.38,0,0,0-.75,0Z" transform="translate(0 -31.61)"/></g><g class="cls-7"><path class="cls-1" d="M52.15,360.3V371a.38.38,0,0,0,.75,0V360.3a.38.38,0,0,0-.75,0Z" transform="translate(0 -31.61)"/></g><g class="cls-7"><path class="cls-1" d="M56.6,360.3V371a.38.38,0,0,0,.75,0V360.3a.38.38,0,0,0-.75,0Z" transform="translate(0 -31.61)"/></g><g class="cls-7"><path class="cls-1" d="M61.05,360.3V371a.38.38,0,0,0,.75,0V360.3a.38.38,0,0,0-.75,0Z" transform="translate(0 -31.61)"/></g><g class="cls-7"><path class="cls-1" d="M65.49,360.3V371a.38.38,0,0,0,.75,0V360.3a.38.38,0,0,0-.75,0Z" transform="translate(0 -31.61)"/></g><g class="cls-7"><path class="cls-1" d="M69.94,360.3V371a.38.38,0,0,0,.75,0V360.3a.38.38,0,0,0-.75,0Z" transform="translate(0 -31.61)"/></g><g class="cls-7"><path class="cls-1" d="M74.39,360.3V371a.38.38,0,0,0,.75,0V360.3a.38.38,0,0,0-.75,0Z" transform="translate(0 -31.61)"/></g><g class="cls-7"><path class="cls-1" d="M78.84,360.3V371a.38.38,0,0,0,.75,0V360.3a.38.38,0,0,0-.75,0Z" transform="translate(0 -31.61)"/></g><rect class="cls-5" x="26.28" y="340.04" width="54.6" height="11.97"/><g class="cls-7"><path class="cls-1" d="M30.68,372.3V383a.38.38,0,0,0,.75,0V372.3a.38.38,0,0,0-.75,0Z" transform="translate(0 -31.61)"/></g><g class="cls-7"><path class="cls-1" d="M35.2,372.3V383a.38.38,0,0,0,.75,0V372.3a.38.38,0,0,0-.75,0Z" transform="translate(0 -31.61)"/></g><g class="cls-7"><path class="cls-1" d="M39.64,372.3V383a.38.38,0,0,0,.75,0V372.3a.38.38,0,0,0-.75,0Z" transform="translate(0 -31.61)"/></g><g class="cls-7"><path class="cls-1" d="M44.09,372.3V383a.38.38,0,0,0,.75,0V372.3a.38.38,0,0,0-.75,0Z" transform="translate(0 -31.61)"/></g><g class="cls-7"><path class="cls-1" d="M48.54,372.3V383a.38.38,0,0,0,.75,0V372.3a.38.38,0,0,0-.75,0Z" transform="translate(0 -31.61)"/></g><g class="cls-7"><path class="cls-1" d="M53,372.3V383a.38.38,0,0,0,.75,0V372.3a.38.38,0,0,0-.75,0Z" transform="translate(0 -31.61)"/></g><g class="cls-7"><path class="cls-1" d="M57.43,372.3V383a.38.38,0,0,0,.75,0V372.3a.38.38,0,0,0-.75,0Z" transform="translate(0 -31.61)"/></g><g class="cls-7"><path class="cls-1" d="M61.88,372.3V383a.38.38,0,0,0,.75,0V372.3a.38.38,0,0,0-.75,0Z" transform="translate(0 -31.61)"/></g><g class="cls-7"><path class="cls-1" d="M66.33,372.3V383a.38.38,0,0,0,.75,0V372.3a.38.38,0,0,0-.75,0Z" transform="translate(0 -31.61)"/></g><g class="cls-7"><path class="cls-1" d="M70.77,372.3V383a.38.38,0,0,0,.75,0V372.3a.38.38,0,0,0-.75,0Z" transform="translate(0 -31.61)"/></g><g class="cls-7"><path class="cls-1" d="M75.22,372.3V383a.38.38,0,0,0,.75,0V372.3a.38.38,0,0,0-.75,0Z" transform="translate(0 -31.61)"/></g><rect class="cls-5" x="25.47" y="363.32" width="54.6" height="11.97"/><rect class="cls-2" x="29.64" y="351.66" width="54.6" height="11.97"/><g class="cls-7"><path class="cls-1" d="M34.3,383.89v10.72a.38.38,0,0,0,.75,0V383.89a.38.38,0,0,0-.75,0Z" transform="translate(0 -31.61)"/></g><g class="cls-7"><path class="cls-1" d="M38.81,383.89v10.72a.38.38,0,0,0,.75,0V383.89a.38.38,0,0,0-.75,0Z" transform="translate(0 -31.61)"/></g><g class="cls-7"><path class="cls-1" d="M43.26,383.89v10.72a.38.38,0,0,0,.75,0V383.89a.38.38,0,0,0-.75,0Z" transform="translate(0 -31.61)"/></g><g class="cls-7"><path class="cls-1" d="M47.71,383.89v10.72a.38.38,0,0,0,.75,0V383.89a.38.38,0,0,0-.75,0Z" transform="translate(0 -31.61)"/></g><g class="cls-7"><path class="cls-1" d="M52.15,383.89v10.72a.38.38,0,0,0,.75,0V383.89a.38.38,0,0,0-.75,0Z" transform="translate(0 -31.61)"/></g><g class="cls-7"><path class="cls-1" d="M56.6,383.89v10.72a.38.38,0,0,0,.75,0V383.89a.38.38,0,0,0-.75,0Z" transform="translate(0 -31.61)"/></g><g class="cls-7"><path class="cls-1" d="M61.05,383.89v10.72a.38.38,0,0,0,.75,0V383.89a.38.38,0,0,0-.75,0Z" transform="translate(0 -31.61)"/></g><g class="cls-7"><path class="cls-1" d="M65.49,383.89v10.72a.38.38,0,0,0,.75,0V383.89a.38.38,0,0,0-.75,0Z" transform="translate(0 -31.61)"/></g><g class="cls-7"><path class="cls-1" d="M69.94,383.89v10.72a.38.38,0,0,0,.75,0V383.89a.38.38,0,0,0-.75,0Z" transform="translate(0 -31.61)"/></g><g class="cls-7"><path class="cls-1" d="M74.39,383.89v10.72a.38.38,0,0,0,.75,0V383.89a.38.38,0,0,0-.75,0Z" transform="translate(0 -31.61)"/></g><g class="cls-7"><path class="cls-1" d="M78.84,383.89v10.72a.38.38,0,0,0,.75,0V383.89a.38.38,0,0,0-.75,0Z" transform="translate(0 -31.61)"/></g><g class="cls-7"><path class="cls-1" d="M29.42,395.76v10.72a.38.38,0,0,0,.75,0V395.76a.38.38,0,0,0-.75,0Z" transform="translate(0 -31.61)"/></g><g class="cls-7"><path class="cls-1" d="M33.93,395.76v10.72a.38.38,0,0,0,.75,0V395.76a.38.38,0,0,0-.75,0Z" transform="translate(0 -31.61)"/></g><g class="cls-7"><path class="cls-1" d="M38.38,395.76v10.72a.38.38,0,0,0,.75,0V395.76a.38.38,0,0,0-.75,0Z" transform="translate(0 -31.61)"/></g><g class="cls-7"><path class="cls-1" d="M42.83,395.76v10.72a.38.38,0,0,0,.75,0V395.76a.38.38,0,0,0-.75,0Z" transform="translate(0 -31.61)"/></g><g class="cls-7"><path class="cls-1" d="M47.27,395.76v10.72a.38.38,0,0,0,.75,0V395.76a.38.38,0,0,0-.75,0Z" transform="translate(0 -31.61)"/></g><g class="cls-7"><path class="cls-1" d="M51.72,395.76v10.72a.38.38,0,0,0,.75,0V395.76a.38.38,0,0,0-.75,0Z" transform="translate(0 -31.61)"/></g><g class="cls-7"><path class="cls-1" d="M56.17,395.76v10.72a.38.38,0,0,0,.75,0V395.76a.38.38,0,0,0-.75,0Z" transform="translate(0 -31.61)"/></g><g class="cls-7"><path class="cls-1" d="M60.62,395.76v10.72a.38.38,0,0,0,.75,0V395.76a.38.38,0,0,0-.75,0Z" transform="translate(0 -31.61)"/></g><g class="cls-7"><path class="cls-1" d="M65.06,395.76v10.72a.38.38,0,0,0,.75,0V395.76a.38.38,0,0,0-.75,0Z" transform="translate(0 -31.61)"/></g><g class="cls-7"><path class="cls-1" d="M69.51,395.76v10.72a.38.38,0,0,0,.75,0V395.76a.38.38,0,0,0-.75,0Z" transform="translate(0 -31.61)"/></g><g class="cls-7"><path class="cls-1" d="M74,395.76v10.72a.38.38,0,0,0,.75,0V395.76a.38.38,0,0,0-.75,0Z" transform="translate(0 -31.61)"/></g><path class="cls-2" d="M339.3,367.61a11.31,11.31,0,0,1-6.88-3.13,21.54,21.54,0,0,1-4.46-6.25,40.21,40.21,0,0,1-4.29-19.8,10.93,10.93,0,0,1,.84-4.28,4.57,4.57,0,0,1,3.27-2.67c2.16-.31,4.05,1.42,5.42,3.12A40.44,40.44,0,0,1,342,362.33c-.16,2.42-1,4.76-2.71,5.28" transform="translate(0 -31.61)"/><path class="cls-2" d="M354.38,353.93a22.31,22.31,0,0,1-1-15.9,31.1,31.1,0,0,1,8.73-13.55c4.34-4.07,9.92-7.2,15.88-7.23,2.54,0,5.29.67,6.85,2.67s1.52,5.17.8,7.77a28,28,0,0,1-6.75,11.3,80.62,80.62,0,0,1-10.05,8.66c-4,3-8.23,6.19-13.21,6.57" transform="translate(0 -31.61)"/><path class="cls-1" d="M327.82,335.32a288.28,288.28,0,0,1,16.81,57.6c.09.47.81.27.73-.2a289,289,0,0,0-16.82-57.6c-.18-.44-.91-.24-.72.2Z" transform="translate(0 -31.61)"/><path class="cls-1" d="M348.66,390.54a94.67,94.67,0,0,1,3.25-29.6A66.93,66.93,0,0,1,366,335.2a77.5,77.5,0,0,1,14.23-12.4c.4-.27,0-.92-.38-.65a73.09,73.09,0,0,0-22.12,23.18,74,74,0,0,0-9.11,27.74,108.5,108.5,0,0,0-.74,17.47.38.38,0,0,0,.75,0Z" transform="translate(0 -31.61)"/><path class="cls-1" d="M330.22,385.65V373.74h33.17v11.91s.63,21.05-11.06,23H341.27C329.58,406.7,330.22,385.65,330.22,385.65Z" transform="translate(0 -31.61)"/><rect class="cls-1" x="367.08" y="39.65" width="78.24" height="124.32"/><rect class="cls-8" x="372.97" y="45.45" width="66.47" height="112.72"/><rect class="cls-4" x="377.36" y="49.51" width="57.68" height="104.6"/><rect class="cls-9" x="390.62" y="63.23" width="31.95" height="75.96"/><path class="cls-8" d="M380.74,83.4s-1,75.88.51,75.62,41.14-74.71,41.31-75.49Z" transform="translate(0 -31.61)"/></g><g id="Shadow"><path class="cls-10" d="M486,465c0,7.12-96.2,12.9-214.87,12.9S56.28,472.08,56.28,465s96.2-12.91,214.87-12.91S486,457.83,486,465Z" transform="translate(0 -31.61)"/></g><g id="Coins"><path class="cls-11" d="M316.39,272.28c11.05-4.09,21.79-5,27.19.69,1.12,1.19,2.42,5,3,6.55,3.31,8.94-4.83,20.2-18.18,25.15s-26.87,1.7-30.18-7.24c-.48-1.3-1.95-5-2-6.35C296.15,283,305,276.51,316.39,272.28Z" transform="translate(0 -31.61)"/><g class="cls-3"><path class="cls-4" d="M323.5,300.46l-5.05.85a9.63,9.63,0,0,1,2.24,5.35,37.4,37.4,0,0,0,5.23-1.13A11.07,11.07,0,0,0,323.5,300.46Z" transform="translate(0 -31.61)"/></g><g class="cls-3"><path class="cls-4" d="M340.67,289.93,339,291.88c1.24,1.21,2.25,2.32,3.42,3.5a25.14,25.14,0,0,0,2.08-2.75C343.17,291.61,342.08,290.89,340.67,289.93Z" transform="translate(0 -31.61)"/></g><g class="cls-3"><path class="cls-4" d="M345.29,291.21a15,15,0,0,0,1.93-9.28,28.7,28.7,0,0,0-2.9-1.28l-2.65,8A39.53,39.53,0,0,1,345.29,291.21Z" transform="translate(0 -31.61)"/></g><path class="cls-12" d="M316.8,272c11.05-4.1,21.79-5,27.18.68,1.13,1.19,2.43,5,3,6.55,3.31,8.95-4.83,20.21-18.19,25.15s-26.86,1.71-30.17-7.23c-.49-1.3-1.95-5-2-6.36C296.56,282.68,305.39,276.17,316.8,272Z" transform="translate(0 -31.61)"/><ellipse class="cls-13" cx="320.49" cy="283.35" rx="25.6" ry="17.27" transform="translate(-78.46 97.35) rotate(-20.32)"/><path class="cls-11" d="M316.56,272.22c9.22-3.42,18.53-1.23,20.8,4.88s-3.38,13.83-12.6,17.25-18.53,1.23-20.79-4.89S307.35,275.63,316.56,272.22Z" transform="translate(0 -31.61)"/><path class="cls-12" d="M316.7,271.73c9.22-3.42,18.53-1.23,20.79,4.88s-3.37,13.84-12.59,17.25-18.53,1.23-20.79-4.88S307.48,275.14,316.7,271.73Z" transform="translate(0 -31.61)"/><path class="cls-12" d="M324.72,293.17c-9.22,3.41-18.52,1.23-20.79-4.88a7.91,7.91,0,0,1-.46-2.08,8.32,8.32,0,0,0,.48,3.32c2.27,6.11,11.57,8.3,20.79,4.88,8.21-3,13.57-9.48,13.06-15.17C337.5,284.6,332.33,290.35,324.72,293.17Z" transform="translate(0 -31.61)"/><path class="cls-6" d="M334,288.38c.27.1,6.63,1.52,6.63,1.52L339,291.82l-6.72-1.68Z" transform="translate(0 -31.61)"/><path class="cls-6" d="M297.45,294.22c.14.25.3.48.46.72l1.91,2.16,0,0,18.64,4.41h0l5.15-1.08h0C323.62,300.43,300.18,295.11,297.45,294.22Z" transform="translate(0 -31.61)"/><path class="cls-6" d="M320,265.58c4.64,1.18,17.4,4,22.29,5.13C337.88,265.68,329.25,263.68,320,265.58Z" transform="translate(0 -31.61)"/><path class="cls-6" d="M335.45,286.62l6.17,2s3.19-4.92,3.4-7.58l-7.19-1.71v0A11.34,11.34,0,0,1,335.45,286.62Z" transform="translate(0 -31.61)"/><path class="cls-6" d="M313.72,273.47l-8-1.64a28.09,28.09,0,0,0-6.89,7l7.39.65A22.16,22.16,0,0,1,313.72,273.47Z" transform="translate(0 -31.61)"/><g class="cls-3"><path d="M329.12,278.29l2.85-1.05.64,1.71-2.78,1a6.94,6.94,0,0,1-.45,5l-3.25.74-.2-.53a6.2,6.2,0,0,0,.58-4l-4.25,1.57c0,2.16-.14,4.64-3.77,6-2.69,1-5.5.54-7-2l-2.82,1-.63-1.71,2.77-1a6.45,6.45,0,0,1,.26-4.05l3.44-.3.2.53a6.25,6.25,0,0,0-.55,2.58l4.32-1.6c0-2.15.12-4.59,3.71-5.92C324.87,275.32,327.64,275.78,329.12,278.29Zm-10.6,5.88-3.61,1.34a2,2,0,0,0,3.61-1.34Zm5-5.22a2,2,0,0,0-1.3,1.88l3.51-1.3A1.83,1.83,0,0,0,323.56,279Z" transform="translate(0 -31.61)"/></g><path class="cls-14" d="M329.32,278.83l2.85-1.06.63,1.72-2.77,1a7,7,0,0,1-.45,5l-3.45.21a6.16,6.16,0,0,0,.57-4l-4.24,1.57c0,2.16-.14,4.63-3.77,6-2.7,1-5.5.53-7-2l-2.82,1-.64-1.72,2.77-1a6.55,6.55,0,0,1,.27-4.06l3.44-.3a6,6,0,0,0-.35,3.11l4.32-1.6c0-2.15.12-4.59,3.71-5.91C325.07,275.86,327.84,276.31,329.32,278.83Zm-10.6,5.87L315.11,286a2,2,0,0,0,3.61-1.34Zm5-5.22a2,2,0,0,0-1.29,1.89l3.51-1.3A1.83,1.83,0,0,0,323.75,279.48Z" transform="translate(0 -31.61)"/><path class="cls-15" d="M344.79,280.06c-.92,7.84-7.68,13.91-14.32,17.32-7.52,3.87-17.09,5.61-25.19,2.55a14,14,0,0,1-8.43-7.79c-.18-.45-.9-.25-.73.2,2.88,7.49,11.54,10,18.9,9.85,9.23-.24,18.84-4.26,25.1-11.13a20.07,20.07,0,0,0,5.42-11c.06-.48-.69-.47-.75,0Z" transform="translate(0 -31.61)"/><rect class="cls-11" x="96.53" y="383.98" width="63.11" height="10.99"/><g class="cls-7"><path class="cls-15" d="M101.67,416.19V426a.38.38,0,0,0,.75,0v-9.84a.38.38,0,0,0-.75,0Z" transform="translate(0 -31.61)"/></g><g class="cls-7"><path class="cls-15" d="M106.89,416.19V426a.38.38,0,0,0,.75,0v-9.84a.38.38,0,0,0-.75,0Z" transform="translate(0 -31.61)"/></g><g class="cls-7"><path class="cls-15" d="M112,416.19V426a.38.38,0,0,0,.75,0v-9.84a.38.38,0,0,0-.75,0Z" transform="translate(0 -31.61)"/></g><g class="cls-7"><path class="cls-15" d="M117.17,416.19V426a.38.38,0,0,0,.75,0v-9.84a.38.38,0,0,0-.75,0Z" transform="translate(0 -31.61)"/></g><g class="cls-7"><path class="cls-15" d="M122.31,416.19V426a.38.38,0,0,0,.75,0v-9.84a.38.38,0,0,0-.75,0Z" transform="translate(0 -31.61)"/></g><g class="cls-7"><path class="cls-15" d="M127.45,416.19V426a.38.38,0,0,0,.75,0v-9.84a.38.38,0,0,0-.75,0Z" transform="translate(0 -31.61)"/></g><g class="cls-7"><path class="cls-15" d="M132.59,416.19V426a.38.38,0,0,0,.75,0v-9.84a.38.38,0,0,0-.75,0Z" transform="translate(0 -31.61)"/></g><g class="cls-7"><path class="cls-15" d="M137.73,416.19V426a.38.38,0,0,0,.75,0v-9.84a.38.38,0,0,0-.75,0Z" transform="translate(0 -31.61)"/></g><g class="cls-7"><path class="cls-15" d="M142.87,416.19V426a.38.38,0,0,0,.75,0v-9.84a.38.38,0,0,0-.75,0Z" transform="translate(0 -31.61)"/></g><g class="cls-7"><path class="cls-15" d="M148,416.19V426a.38.38,0,0,0,.75,0v-9.84a.38.38,0,0,0-.75,0Z" transform="translate(0 -31.61)"/></g><g class="cls-7"><path class="cls-15" d="M153.15,416.19V426a.38.38,0,0,0,.75,0v-9.84a.38.38,0,0,0-.75,0Z" transform="translate(0 -31.61)"/></g><rect class="cls-11" x="95.58" y="405.35" width="63.11" height="10.99"/><rect class="cls-11" x="100.41" y="394.65" width="63.11" height="10.99"/><rect class="cls-12" x="100.45" y="394.65" width="63.11" height="10.99"/><g class="cls-7"><path class="cls-15" d="M105.85,426.82v9.85a.38.38,0,0,0,.75,0v-9.85a.38.38,0,0,0-.75,0Z" transform="translate(0 -31.61)"/></g><g class="cls-7"><path class="cls-15" d="M111.07,426.82v9.85a.38.38,0,0,0,.75,0v-9.85a.38.38,0,0,0-.75,0Z" transform="translate(0 -31.61)"/></g><g class="cls-7"><path class="cls-15" d="M116.21,426.82v9.85a.38.38,0,0,0,.75,0v-9.85a.38.38,0,0,0-.75,0Z" transform="translate(0 -31.61)"/></g><g class="cls-7"><path class="cls-15" d="M121.35,426.82v9.85a.38.38,0,0,0,.75,0v-9.85a.38.38,0,0,0-.75,0Z" transform="translate(0 -31.61)"/></g><g class="cls-7"><path class="cls-15" d="M126.49,426.82v9.85a.38.38,0,0,0,.75,0v-9.85a.38.38,0,0,0-.75,0Z" transform="translate(0 -31.61)"/></g><g class="cls-7"><path class="cls-15" d="M131.63,426.82v9.85a.38.38,0,0,0,.75,0v-9.85a.38.38,0,0,0-.75,0Z" transform="translate(0 -31.61)"/></g><g class="cls-7"><path class="cls-15" d="M136.77,426.82v9.85a.38.38,0,0,0,.75,0v-9.85a.38.38,0,0,0-.75,0Z" transform="translate(0 -31.61)"/></g><g class="cls-7"><path class="cls-15" d="M141.91,426.82v9.85a.38.38,0,0,0,.75,0v-9.85a.38.38,0,0,0-.75,0Z" transform="translate(0 -31.61)"/></g><g class="cls-7"><path class="cls-15" d="M147.05,426.82v9.85a.38.38,0,0,0,.75,0v-9.85a.38.38,0,0,0-.75,0Z" transform="translate(0 -31.61)"/></g><g class="cls-7"><path class="cls-15" d="M152.19,426.82v9.85a.38.38,0,0,0,.75,0v-9.85a.38.38,0,0,0-.75,0Z" transform="translate(0 -31.61)"/></g><g class="cls-7"><path class="cls-15" d="M157.33,426.82v9.85a.38.38,0,0,0,.75,0v-9.85a.38.38,0,0,0-.75,0Z" transform="translate(0 -31.61)"/></g><rect class="cls-11" x="100.41" y="372.84" width="63.11" height="10.99"/><rect class="cls-12" x="100.45" y="372.84" width="63.11" height="10.99"/><g class="cls-7"><path class="cls-15" d="M105.85,405v9.84a.38.38,0,0,0,.75,0V405a.38.38,0,0,0-.75,0Z" transform="translate(0 -31.61)"/></g><g class="cls-7"><path class="cls-15" d="M111.07,405v9.84a.38.38,0,0,0,.75,0V405a.38.38,0,0,0-.75,0Z" transform="translate(0 -31.61)"/></g><g class="cls-7"><path class="cls-15" d="M116.21,405v9.84a.38.38,0,0,0,.75,0V405a.38.38,0,0,0-.75,0Z" transform="translate(0 -31.61)"/></g><g class="cls-7"><path class="cls-15" d="M121.35,405v9.84a.38.38,0,0,0,.75,0V405a.38.38,0,0,0-.75,0Z" transform="translate(0 -31.61)"/></g><g class="cls-7"><path class="cls-15" d="M126.49,405v9.84a.38.38,0,0,0,.75,0V405a.38.38,0,0,0-.75,0Z" transform="translate(0 -31.61)"/></g><g class="cls-7"><path class="cls-15" d="M131.63,405v9.84a.38.38,0,0,0,.75,0V405a.38.38,0,0,0-.75,0Z" transform="translate(0 -31.61)"/></g><g class="cls-7"><path class="cls-15" d="M136.77,405v9.84a.38.38,0,0,0,.75,0V405a.38.38,0,0,0-.75,0Z" transform="translate(0 -31.61)"/></g><g class="cls-7"><path class="cls-15" d="M141.91,405v9.84a.38.38,0,0,0,.75,0V405a.38.38,0,0,0-.75,0Z" transform="translate(0 -31.61)"/></g><g class="cls-7"><path class="cls-15" d="M147.05,405v9.84a.38.38,0,0,0,.75,0V405a.38.38,0,0,0-.75,0Z" transform="translate(0 -31.61)"/></g><g class="cls-7"><path class="cls-15" d="M152.19,405v9.84a.38.38,0,0,0,.75,0V405a.38.38,0,0,0-.75,0Z" transform="translate(0 -31.61)"/></g><g class="cls-7"><path class="cls-15" d="M157.33,405v9.84a.38.38,0,0,0,.75,0V405a.38.38,0,0,0-.75,0Z" transform="translate(0 -31.61)"/></g><g class="cls-7"><path class="cls-15" d="M100.21,437.72v9.84a.38.38,0,0,0,.75,0v-9.84a.38.38,0,0,0-.75,0Z" transform="translate(0 -31.61)"/></g><g class="cls-7"><path class="cls-15" d="M105.43,437.72v9.84a.38.38,0,0,0,.75,0v-9.84a.38.38,0,0,0-.75,0Z" transform="translate(0 -31.61)"/></g><g class="cls-7"><path class="cls-15" d="M110.57,437.72v9.84a.38.38,0,0,0,.75,0v-9.84a.38.38,0,0,0-.75,0Z" transform="translate(0 -31.61)"/></g><g class="cls-7"><path class="cls-15" d="M115.71,437.72v9.84a.38.38,0,0,0,.75,0v-9.84a.38.38,0,0,0-.75,0Z" transform="translate(0 -31.61)"/></g><g class="cls-7"><path class="cls-15" d="M120.85,437.72v9.84a.38.38,0,0,0,.75,0v-9.84a.38.38,0,0,0-.75,0Z" transform="translate(0 -31.61)"/></g><g class="cls-7"><path class="cls-15" d="M126,437.72v9.84a.38.38,0,0,0,.75,0v-9.84a.38.38,0,0,0-.75,0Z" transform="translate(0 -31.61)"/></g><g class="cls-7"><path class="cls-15" d="M131.13,437.72v9.84a.38.38,0,0,0,.75,0v-9.84a.38.38,0,0,0-.75,0Z" transform="translate(0 -31.61)"/></g><g class="cls-7"><path class="cls-15" d="M136.27,437.72v9.84a.38.38,0,0,0,.75,0v-9.84a.38.38,0,0,0-.75,0Z" transform="translate(0 -31.61)"/></g><g class="cls-7"><path class="cls-15" d="M141.41,437.72v9.84a.38.38,0,0,0,.75,0v-9.84a.38.38,0,0,0-.75,0Z" transform="translate(0 -31.61)"/></g><g class="cls-7"><path class="cls-15" d="M146.55,437.72v9.84a.38.38,0,0,0,.75,0v-9.84a.38.38,0,0,0-.75,0Z" transform="translate(0 -31.61)"/></g><g class="cls-7"><path class="cls-15" d="M151.69,437.72v9.84a.38.38,0,0,0,.75,0v-9.84a.38.38,0,0,0-.75,0Z" transform="translate(0 -31.61)"/></g><g class="cls-7"><polygon points="159.64 384.12 96.53 384.12 96.53 395.11 100.41 395.11 100.41 405.49 95.58 405.49 95.58 416.47 158.69 416.47 158.69 405.77 163.52 405.77 163.52 394.78 159.64 394.78 159.64 384.12"/></g><g class="cls-3"><rect x="100.45" y="372.84" width="63.11" height="10.99"/></g><rect class="cls-11" x="61.93" y="308.52" width="63.11" height="10.99"/><rect class="cls-12" x="62.24" y="308.52" width="63.11" height="10.99"/><g class="cls-7"><path class="cls-15" d="M67.37,340.69v9.85a.38.38,0,0,0,.75,0v-9.85a.38.38,0,0,0-.75,0Z" transform="translate(0 -31.61)"/></g><g class="cls-7"><path class="cls-15" d="M72.59,340.69v9.85a.38.38,0,0,0,.75,0v-9.85a.38.38,0,0,0-.75,0Z" transform="translate(0 -31.61)"/></g><g class="cls-7"><path class="cls-15" d="M77.73,340.69v9.85a.38.38,0,0,0,.75,0v-9.85a.38.38,0,0,0-.75,0Z" transform="translate(0 -31.61)"/></g><g class="cls-7"><path class="cls-15" d="M82.87,340.69v9.85a.38.38,0,0,0,.75,0v-9.85a.38.38,0,0,0-.75,0Z" transform="translate(0 -31.61)"/></g><g class="cls-7"><path class="cls-15" d="M88,340.69v9.85a.38.38,0,0,0,.75,0v-9.85a.38.38,0,0,0-.75,0Z" transform="translate(0 -31.61)"/></g><g class="cls-7"><path class="cls-15" d="M93.15,340.69v9.85a.38.38,0,0,0,.75,0v-9.85a.38.38,0,0,0-.75,0Z" transform="translate(0 -31.61)"/></g><g class="cls-7"><path class="cls-15" d="M98.29,340.69v9.85a.38.38,0,0,0,.75,0v-9.85a.38.38,0,0,0-.75,0Z" transform="translate(0 -31.61)"/></g><g class="cls-7"><path class="cls-15" d="M103.43,340.69v9.85a.38.38,0,0,0,.75,0v-9.85a.38.38,0,0,0-.75,0Z" transform="translate(0 -31.61)"/></g><g class="cls-7"><path class="cls-15" d="M108.57,340.69v9.85a.38.38,0,0,0,.75,0v-9.85a.38.38,0,0,0-.75,0Z" transform="translate(0 -31.61)"/></g><g class="cls-7"><path class="cls-15" d="M113.71,340.69v9.85a.38.38,0,0,0,.75,0v-9.85a.38.38,0,0,0-.75,0Z" transform="translate(0 -31.61)"/></g><g class="cls-7"><path class="cls-15" d="M118.85,340.69v9.85a.38.38,0,0,0,.75,0v-9.85a.38.38,0,0,0-.75,0Z" transform="translate(0 -31.61)"/></g><rect class="cls-11" x="58.05" y="297.85" width="63.11" height="10.99"/><g class="cls-7"><path class="cls-15" d="M63.19,330.06v9.84a.38.38,0,0,0,.75,0v-9.84a.38.38,0,0,0-.75,0Z" transform="translate(0 -31.61)"/></g><g class="cls-7"><path class="cls-15" d="M68.41,330.06v9.84a.38.38,0,0,0,.75,0v-9.84a.38.38,0,0,0-.75,0Z" transform="translate(0 -31.61)"/></g><g class="cls-7"><path class="cls-15" d="M73.55,330.06v9.84a.38.38,0,0,0,.75,0v-9.84a.38.38,0,0,0-.75,0Z" transform="translate(0 -31.61)"/></g><g class="cls-7"><path class="cls-15" d="M78.69,330.06v9.84a.38.38,0,0,0,.75,0v-9.84a.38.38,0,0,0-.75,0Z" transform="translate(0 -31.61)"/></g><g class="cls-7"><path class="cls-15" d="M83.83,330.06v9.84a.38.38,0,0,0,.75,0v-9.84a.38.38,0,0,0-.75,0Z" transform="translate(0 -31.61)"/></g><g class="cls-7"><path class="cls-15" d="M89,330.06v9.84a.38.38,0,0,0,.75,0v-9.84a.38.38,0,0,0-.75,0Z" transform="translate(0 -31.61)"/></g><g class="cls-7"><path class="cls-15" d="M94.11,330.06v9.84a.38.38,0,0,0,.75,0v-9.84a.38.38,0,0,0-.75,0Z" transform="translate(0 -31.61)"/></g><g class="cls-7"><path class="cls-15" d="M99.25,330.06v9.84a.38.38,0,0,0,.75,0v-9.84a.38.38,0,0,0-.75,0Z" transform="translate(0 -31.61)"/></g><g class="cls-7"><path class="cls-15" d="M104.4,330.06v9.84a.38.38,0,0,0,.75,0v-9.84a.38.38,0,0,0-.75,0Z" transform="translate(0 -31.61)"/></g><g class="cls-7"><path class="cls-15" d="M109.54,330.06v9.84a.38.38,0,0,0,.75,0v-9.84a.38.38,0,0,0-.75,0Z" transform="translate(0 -31.61)"/></g><g class="cls-7"><path class="cls-15" d="M114.68,330.06v9.84a.38.38,0,0,0,.75,0v-9.84a.38.38,0,0,0-.75,0Z" transform="translate(0 -31.61)"/></g><rect class="cls-11" x="61.46" y="330.12" width="63.11" height="10.99"/><rect class="cls-12" x="61.97" y="330.63" width="63.11" height="10.99"/><g class="cls-7"><path class="cls-15" d="M66.9,362.3v9.84a.38.38,0,0,0,.75,0V362.3a.38.38,0,0,0-.75,0Z" transform="translate(0 -31.61)"/></g><g class="cls-7"><path class="cls-15" d="M72.12,362.3v9.84a.38.38,0,0,0,.75,0V362.3a.38.38,0,0,0-.75,0Z" transform="translate(0 -31.61)"/></g><g class="cls-7"><path class="cls-15" d="M77.26,362.3v9.84a.38.38,0,0,0,.75,0V362.3a.38.38,0,0,0-.75,0Z" transform="translate(0 -31.61)"/></g><g class="cls-7"><path class="cls-15" d="M82.4,362.3v9.84a.38.38,0,0,0,.75,0V362.3a.38.38,0,0,0-.75,0Z" transform="translate(0 -31.61)"/></g><g class="cls-7"><path class="cls-15" d="M87.54,362.3v9.84a.38.38,0,0,0,.75,0V362.3a.38.38,0,0,0-.75,0Z" transform="translate(0 -31.61)"/></g><g class="cls-7"><path class="cls-15" d="M92.68,362.3v9.84a.38.38,0,0,0,.75,0V362.3a.38.38,0,0,0-.75,0Z" transform="translate(0 -31.61)"/></g><g class="cls-7"><path class="cls-15" d="M97.82,362.3v9.84a.38.38,0,0,0,.75,0V362.3a.38.38,0,0,0-.75,0Z" transform="translate(0 -31.61)"/></g><g class="cls-7"><path class="cls-15" d="M103,362.3v9.84a.38.38,0,0,0,.75,0V362.3a.38.38,0,0,0-.75,0Z" transform="translate(0 -31.61)"/></g><g class="cls-7"><path class="cls-15" d="M108.1,362.3v9.84a.38.38,0,0,0,.75,0V362.3a.38.38,0,0,0-.75,0Z" transform="translate(0 -31.61)"/></g><g class="cls-7"><path class="cls-15" d="M113.24,362.3v9.84a.38.38,0,0,0,.75,0V362.3a.38.38,0,0,0-.75,0Z" transform="translate(0 -31.61)"/></g><g class="cls-7"><path class="cls-15" d="M118.38,362.3v9.84a.38.38,0,0,0,.75,0V362.3a.38.38,0,0,0-.75,0Z" transform="translate(0 -31.61)"/></g><rect class="cls-11" x="57.58" y="319.46" width="63.11" height="10.99"/><g class="cls-7"><path class="cls-15" d="M62.73,351.67v9.84a.38.38,0,0,0,.75,0v-9.84a.38.38,0,0,0-.75,0Z" transform="translate(0 -31.61)"/></g><g class="cls-7"><path class="cls-15" d="M67.94,351.67v9.84a.38.38,0,0,0,.75,0v-9.84a.38.38,0,0,0-.75,0Z" transform="translate(0 -31.61)"/></g><g class="cls-7"><path class="cls-15" d="M73.08,351.67v9.84a.38.38,0,0,0,.75,0v-9.84a.38.38,0,0,0-.75,0Z" transform="translate(0 -31.61)"/></g><g class="cls-7"><path class="cls-15" d="M78.22,351.67v9.84a.38.38,0,0,0,.75,0v-9.84a.38.38,0,0,0-.75,0Z" transform="translate(0 -31.61)"/></g><g class="cls-7"><path class="cls-15" d="M83.36,351.67v9.84a.38.38,0,0,0,.75,0v-9.84a.38.38,0,0,0-.75,0Z" transform="translate(0 -31.61)"/></g><g class="cls-7"><path class="cls-15" d="M88.51,351.67v9.84a.38.38,0,0,0,.75,0v-9.84a.38.38,0,0,0-.75,0Z" transform="translate(0 -31.61)"/></g><g class="cls-7"><path class="cls-15" d="M93.65,351.67v9.84a.38.38,0,0,0,.75,0v-9.84a.38.38,0,0,0-.75,0Z" transform="translate(0 -31.61)"/></g><g class="cls-7"><path class="cls-15" d="M98.79,351.67v9.84a.38.38,0,0,0,.75,0v-9.84a.38.38,0,0,0-.75,0Z" transform="translate(0 -31.61)"/></g><g class="cls-7"><path class="cls-15" d="M103.93,351.67v9.84a.38.38,0,0,0,.75,0v-9.84a.38.38,0,0,0-.75,0Z" transform="translate(0 -31.61)"/></g><g class="cls-7"><path class="cls-15" d="M109.07,351.67v9.84a.38.38,0,0,0,.75,0v-9.84a.38.38,0,0,0-.75,0Z" transform="translate(0 -31.61)"/></g><g class="cls-7"><path class="cls-15" d="M114.21,351.67v9.84a.38.38,0,0,0,.75,0v-9.84a.38.38,0,0,0-.75,0Z" transform="translate(0 -31.61)"/></g><rect class="cls-11" x="57.36" y="384.14" width="63.11" height="10.99"/><g class="cls-7"><path class="cls-15" d="M62.51,416.35v9.84a.38.38,0,0,0,.75,0v-9.84a.38.38,0,0,0-.75,0Z" transform="translate(0 -31.61)"/></g><g class="cls-7"><path class="cls-15" d="M67.72,416.35v9.84a.38.38,0,0,0,.75,0v-9.84a.38.38,0,0,0-.75,0Z" transform="translate(0 -31.61)"/></g><g class="cls-7"><path class="cls-15" d="M72.86,416.35v9.84a.38.38,0,0,0,.75,0v-9.84a.38.38,0,0,0-.75,0Z" transform="translate(0 -31.61)"/></g><g class="cls-7"><path class="cls-15" d="M78,416.35v9.84a.38.38,0,0,0,.75,0v-9.84a.38.38,0,0,0-.75,0Z" transform="translate(0 -31.61)"/></g><g class="cls-7"><path class="cls-15" d="M83.14,416.35v9.84a.38.38,0,0,0,.75,0v-9.84a.38.38,0,0,0-.75,0Z" transform="translate(0 -31.61)"/></g><g class="cls-7"><path class="cls-15" d="M88.29,416.35v9.84a.38.38,0,0,0,.75,0v-9.84a.38.38,0,0,0-.75,0Z" transform="translate(0 -31.61)"/></g><g class="cls-7"><path class="cls-15" d="M93.43,416.35v9.84a.38.38,0,0,0,.75,0v-9.84a.38.38,0,0,0-.75,0Z" transform="translate(0 -31.61)"/></g><g class="cls-7"><path class="cls-15" d="M98.57,416.35v9.84a.38.38,0,0,0,.75,0v-9.84a.38.38,0,0,0-.75,0Z" transform="translate(0 -31.61)"/></g><g class="cls-7"><path class="cls-15" d="M103.71,416.35v9.84a.38.38,0,0,0,.75,0v-9.84a.38.38,0,0,0-.75,0Z" transform="translate(0 -31.61)"/></g><g class="cls-7"><path class="cls-15" d="M108.85,416.35v9.84a.38.38,0,0,0,.75,0v-9.84a.38.38,0,0,0-.75,0Z" transform="translate(0 -31.61)"/></g><g class="cls-7"><path class="cls-15" d="M114,416.35v9.84a.38.38,0,0,0,.75,0v-9.84a.38.38,0,0,0-.75,0Z" transform="translate(0 -31.61)"/></g><rect class="cls-11" x="56.42" y="405.51" width="63.11" height="10.99"/><rect class="cls-11" x="61.24" y="394.8" width="63.11" height="10.99"/><rect class="cls-12" x="61.28" y="394.8" width="63.11" height="10.99"/><g class="cls-7"><path class="cls-15" d="M66.68,427v9.85a.38.38,0,0,0,.75,0V427a.38.38,0,0,0-.75,0Z" transform="translate(0 -31.61)"/></g><g class="cls-7"><path class="cls-15" d="M71.9,427v9.85a.38.38,0,0,0,.75,0V427a.38.38,0,0,0-.75,0Z" transform="translate(0 -31.61)"/></g><g class="cls-7"><path class="cls-15" d="M77,427v9.85a.38.38,0,0,0,.75,0V427a.38.38,0,0,0-.75,0Z" transform="translate(0 -31.61)"/></g><g class="cls-7"><path class="cls-15" d="M82.18,427v9.85a.38.38,0,0,0,.75,0V427a.38.38,0,0,0-.75,0Z" transform="translate(0 -31.61)"/></g><g class="cls-7"><path class="cls-15" d="M87.32,427v9.85a.38.38,0,0,0,.75,0V427a.38.38,0,0,0-.75,0Z" transform="translate(0 -31.61)"/></g><g class="cls-7"><path class="cls-15" d="M92.46,427v9.85a.38.38,0,0,0,.75,0V427a.38.38,0,0,0-.75,0Z" transform="translate(0 -31.61)"/></g><g class="cls-7"><path class="cls-15" d="M97.6,427v9.85a.38.38,0,0,0,.75,0V427a.38.38,0,0,0-.75,0Z" transform="translate(0 -31.61)"/></g><g class="cls-7"><path class="cls-15" d="M102.74,427v9.85a.38.38,0,0,0,.75,0V427a.38.38,0,0,0-.75,0Z" transform="translate(0 -31.61)"/></g><g class="cls-7"><path class="cls-15" d="M107.88,427v9.85a.38.38,0,0,0,.75,0V427a.38.38,0,0,0-.75,0Z" transform="translate(0 -31.61)"/></g><g class="cls-7"><path class="cls-15" d="M113,427v9.85a.38.38,0,0,0,.75,0V427a.38.38,0,0,0-.75,0Z" transform="translate(0 -31.61)"/></g><g class="cls-7"><path class="cls-15" d="M118.16,427v9.85a.38.38,0,0,0,.75,0V427a.38.38,0,0,0-.75,0Z" transform="translate(0 -31.61)"/></g><rect class="cls-11" x="61.24" y="373" width="63.11" height="10.99"/><rect class="cls-12" x="61.28" y="373.09" width="63.11" height="10.99"/><g class="cls-7"><path class="cls-15" d="M66.68,405.18V415a.38.38,0,0,0,.75,0v-9.84a.38.38,0,0,0-.75,0Z" transform="translate(0 -31.61)"/></g><g class="cls-7"><path class="cls-15" d="M71.9,405.18V415a.38.38,0,0,0,.75,0v-9.84a.38.38,0,0,0-.75,0Z" transform="translate(0 -31.61)"/></g><g class="cls-7"><path class="cls-15" d="M77,405.18V415a.38.38,0,0,0,.75,0v-9.84a.38.38,0,0,0-.75,0Z" transform="translate(0 -31.61)"/></g><g class="cls-7"><path class="cls-15" d="M82.18,405.18V415a.38.38,0,0,0,.75,0v-9.84a.38.38,0,0,0-.75,0Z" transform="translate(0 -31.61)"/></g><g class="cls-7"><path class="cls-15" d="M87.32,405.18V415a.38.38,0,0,0,.75,0v-9.84a.38.38,0,0,0-.75,0Z" transform="translate(0 -31.61)"/></g><g class="cls-7"><path class="cls-15" d="M92.46,405.18V415a.38.38,0,0,0,.75,0v-9.84a.38.38,0,0,0-.75,0Z" transform="translate(0 -31.61)"/></g><g class="cls-7"><path class="cls-15" d="M97.6,405.18V415a.38.38,0,0,0,.75,0v-9.84a.38.38,0,0,0-.75,0Z" transform="translate(0 -31.61)"/></g><g class="cls-7"><path class="cls-15" d="M102.74,405.18V415a.38.38,0,0,0,.75,0v-9.84a.38.38,0,0,0-.75,0Z" transform="translate(0 -31.61)"/></g><g class="cls-7"><path class="cls-15" d="M107.88,405.18V415a.38.38,0,0,0,.75,0v-9.84a.38.38,0,0,0-.75,0Z" transform="translate(0 -31.61)"/></g><g class="cls-7"><path class="cls-15" d="M113,405.18V415a.38.38,0,0,0,.75,0v-9.84a.38.38,0,0,0-.75,0Z" transform="translate(0 -31.61)"/></g><g class="cls-7"><path class="cls-15" d="M118.16,405.18V415a.38.38,0,0,0,.75,0v-9.84a.38.38,0,0,0-.75,0Z" transform="translate(0 -31.61)"/></g><g class="cls-7"><path class="cls-15" d="M61,437.88v9.84a.38.38,0,0,0,.75,0v-9.84a.38.38,0,0,0-.75,0Z" transform="translate(0 -31.61)"/></g><g class="cls-7"><path class="cls-15" d="M66.26,437.88v9.84a.38.38,0,0,0,.75,0v-9.84a.38.38,0,0,0-.75,0Z" transform="translate(0 -31.61)"/></g><g class="cls-7"><path class="cls-15" d="M71.4,437.88v9.84a.38.38,0,0,0,.75,0v-9.84a.38.38,0,0,0-.75,0Z" transform="translate(0 -31.61)"/></g><g class="cls-7"><path class="cls-15" d="M76.54,437.88v9.84a.38.38,0,0,0,.75,0v-9.84a.38.38,0,0,0-.75,0Z" transform="translate(0 -31.61)"/></g><g class="cls-7"><path class="cls-15" d="M81.68,437.88v9.84a.38.38,0,0,0,.75,0v-9.84a.38.38,0,0,0-.75,0Z" transform="translate(0 -31.61)"/></g><g class="cls-7"><path class="cls-15" d="M86.82,437.88v9.84a.38.38,0,0,0,.75,0v-9.84a.38.38,0,0,0-.75,0Z" transform="translate(0 -31.61)"/></g><g class="cls-7"><path class="cls-15" d="M92,437.88v9.84a.38.38,0,0,0,.75,0v-9.84a.38.38,0,0,0-.75,0Z" transform="translate(0 -31.61)"/></g><g class="cls-7"><path class="cls-15" d="M97.1,437.88v9.84a.38.38,0,0,0,.75,0v-9.84a.38.38,0,0,0-.75,0Z" transform="translate(0 -31.61)"/></g><g class="cls-7"><path class="cls-15" d="M102.24,437.88v9.84a.38.38,0,0,0,.75,0v-9.84a.38.38,0,0,0-.75,0Z" transform="translate(0 -31.61)"/></g><g class="cls-7"><path class="cls-15" d="M107.39,437.88v9.84a.38.38,0,0,0,.75,0v-9.84a.38.38,0,0,0-.75,0Z" transform="translate(0 -31.61)"/></g><g class="cls-7"><path class="cls-15" d="M112.53,437.88v9.84a.38.38,0,0,0,.75,0v-9.84a.38.38,0,0,0-.75,0Z" transform="translate(0 -31.61)"/></g><rect class="cls-11" x="57.36" y="341.09" width="63.11" height="10.99"/><g class="cls-7"><path class="cls-15" d="M62.51,373.3v9.84a.38.38,0,0,0,.75,0V373.3a.38.38,0,0,0-.75,0Z" transform="translate(0 -31.61)"/></g><g class="cls-7"><path class="cls-15" d="M67.72,373.3v9.84a.38.38,0,0,0,.75,0V373.3a.38.38,0,0,0-.75,0Z" transform="translate(0 -31.61)"/></g><g class="cls-7"><path class="cls-15" d="M72.86,373.3v9.84a.38.38,0,0,0,.75,0V373.3a.38.38,0,0,0-.75,0Z" transform="translate(0 -31.61)"/></g><g class="cls-7"><path class="cls-15" d="M78,373.3v9.84a.38.38,0,0,0,.75,0V373.3a.38.38,0,0,0-.75,0Z" transform="translate(0 -31.61)"/></g><g class="cls-7"><path class="cls-15" d="M83.14,373.3v9.84a.38.38,0,0,0,.75,0V373.3a.38.38,0,0,0-.75,0Z" transform="translate(0 -31.61)"/></g><g class="cls-7"><path class="cls-15" d="M88.29,373.3v9.84a.38.38,0,0,0,.75,0V373.3a.38.38,0,0,0-.75,0Z" transform="translate(0 -31.61)"/></g><g class="cls-7"><path class="cls-15" d="M93.43,373.3v9.84a.38.38,0,0,0,.75,0V373.3a.38.38,0,0,0-.75,0Z" transform="translate(0 -31.61)"/></g><g class="cls-7"><path class="cls-15" d="M98.57,373.3v9.84a.38.38,0,0,0,.75,0V373.3a.38.38,0,0,0-.75,0Z" transform="translate(0 -31.61)"/></g><g class="cls-7"><path class="cls-15" d="M103.71,373.3v9.84a.38.38,0,0,0,.75,0V373.3a.38.38,0,0,0-.75,0Z" transform="translate(0 -31.61)"/></g><g class="cls-7"><path class="cls-15" d="M108.85,373.3v9.84a.38.38,0,0,0,.75,0V373.3a.38.38,0,0,0-.75,0Z" transform="translate(0 -31.61)"/></g><g class="cls-7"><path class="cls-15" d="M114,373.3v9.84a.38.38,0,0,0,.75,0V373.3a.38.38,0,0,0-.75,0Z" transform="translate(0 -31.61)"/></g><rect class="cls-11" x="56.42" y="362.45" width="63.11" height="10.99"/><rect class="cls-11" x="61.24" y="351.75" width="63.11" height="10.99"/><rect class="cls-12" x="61.5" y="351.75" width="63.11" height="10.99"/><g class="cls-7"><path class="cls-15" d="M66.68,383.93v9.84a.38.38,0,0,0,.75,0v-9.84a.38.38,0,0,0-.75,0Z" transform="translate(0 -31.61)"/></g><g class="cls-7"><path class="cls-15" d="M71.9,383.93v9.84a.38.38,0,0,0,.75,0v-9.84a.38.38,0,0,0-.75,0Z" transform="translate(0 -31.61)"/></g><g class="cls-7"><path class="cls-15" d="M77,383.93v9.84a.38.38,0,0,0,.75,0v-9.84a.38.38,0,0,0-.75,0Z" transform="translate(0 -31.61)"/></g><g class="cls-7"><path class="cls-15" d="M82.18,383.93v9.84a.38.38,0,0,0,.75,0v-9.84a.38.38,0,0,0-.75,0Z" transform="translate(0 -31.61)"/></g><g class="cls-7"><path class="cls-15" d="M87.32,383.93v9.84a.38.38,0,0,0,.75,0v-9.84a.38.38,0,0,0-.75,0Z" transform="translate(0 -31.61)"/></g><g class="cls-7"><path class="cls-15" d="M92.46,383.93v9.84a.38.38,0,0,0,.75,0v-9.84a.38.38,0,0,0-.75,0Z" transform="translate(0 -31.61)"/></g><g class="cls-7"><path class="cls-15" d="M97.6,383.93v9.84a.38.38,0,0,0,.75,0v-9.84a.38.38,0,0,0-.75,0Z" transform="translate(0 -31.61)"/></g><g class="cls-7"><path class="cls-15" d="M102.74,383.93v9.84a.38.38,0,0,0,.75,0v-9.84a.38.38,0,0,0-.75,0Z" transform="translate(0 -31.61)"/></g><g class="cls-7"><path class="cls-15" d="M107.88,383.93v9.84a.38.38,0,0,0,.75,0v-9.84a.38.38,0,0,0-.75,0Z" transform="translate(0 -31.61)"/></g><g class="cls-7"><path class="cls-15" d="M113,383.93v9.84a.38.38,0,0,0,.75,0v-9.84a.38.38,0,0,0-.75,0Z" transform="translate(0 -31.61)"/></g><g class="cls-7"><path class="cls-15" d="M118.16,383.93v9.84a.38.38,0,0,0,.75,0v-9.84a.38.38,0,0,0-.75,0Z" transform="translate(0 -31.61)"/></g><g class="cls-7"><path class="cls-15" d="M61,394.82v9.85a.38.38,0,0,0,.75,0v-9.85a.38.38,0,0,0-.75,0Z" transform="translate(0 -31.61)"/></g><g class="cls-7"><path class="cls-15" d="M66.26,394.82v9.85a.38.38,0,0,0,.75,0v-9.85a.38.38,0,0,0-.75,0Z" transform="translate(0 -31.61)"/></g><g class="cls-7"><path class="cls-15" d="M71.4,394.82v9.85a.38.38,0,0,0,.75,0v-9.85a.38.38,0,0,0-.75,0Z" transform="translate(0 -31.61)"/></g><g class="cls-7"><path class="cls-15" d="M76.54,394.82v9.85a.38.38,0,0,0,.75,0v-9.85a.38.38,0,0,0-.75,0Z" transform="translate(0 -31.61)"/></g><g class="cls-7"><path class="cls-15" d="M81.68,394.82v9.85a.38.38,0,0,0,.75,0v-9.85a.38.38,0,0,0-.75,0Z" transform="translate(0 -31.61)"/></g><g class="cls-7"><path class="cls-15" d="M86.82,394.82v9.85a.38.38,0,0,0,.75,0v-9.85a.38.38,0,0,0-.75,0Z" transform="translate(0 -31.61)"/></g><g class="cls-7"><path class="cls-15" d="M92,394.82v9.85a.38.38,0,0,0,.75,0v-9.85a.38.38,0,0,0-.75,0Z" transform="translate(0 -31.61)"/></g><g class="cls-7"><path class="cls-15" d="M97.1,394.82v9.85a.38.38,0,0,0,.75,0v-9.85a.38.38,0,0,0-.75,0Z" transform="translate(0 -31.61)"/></g><g class="cls-7"><path class="cls-15" d="M102.24,394.82v9.85a.38.38,0,0,0,.75,0v-9.85a.38.38,0,0,0-.75,0Z" transform="translate(0 -31.61)"/></g><g class="cls-7"><path class="cls-15" d="M107.39,394.82v9.85a.38.38,0,0,0,.75,0v-9.85a.38.38,0,0,0-.75,0Z" transform="translate(0 -31.61)"/></g><g class="cls-7"><path class="cls-15" d="M112.53,394.82v9.85a.38.38,0,0,0,.75,0v-9.85a.38.38,0,0,0-.75,0Z" transform="translate(0 -31.61)"/></g><path class="cls-11" d="M120.47,36.87c9.91-2,19.15-1.44,23,4.12.8,1.15,1.4,4.56,1.69,5.95,1.65,8-6.73,16.52-18.71,19s-23-2-24.68-10.06c-.23-1.17-1-4.49-.84-5.65C101.89,43.35,110.23,39,120.47,36.87Z" transform="translate(0 -31.61)"/><g class="cls-3"><path class="cls-4" d="M122.84,61.72l-4.4.06a8.32,8.32,0,0,1,1.21,4.84,32.81,32.81,0,0,0,4.59-.29A9.53,9.53,0,0,0,122.84,61.72Z" transform="translate(0 -31.61)"/></g><g class="cls-3"><path class="cls-4" d="M138.79,55l-1.72,1.43c.9,1.19,1.61,2.27,2.45,3.42a21.9,21.9,0,0,0,2.12-2.07C140.69,56.76,139.86,56,138.79,55Z" transform="translate(0 -31.61)"/></g><g class="cls-3"><path class="cls-4" d="M142.54,56.7a12.87,12.87,0,0,0,2.85-7.63,24.92,24.92,0,0,0-2.3-1.47l-3.29,6.45A31.4,31.4,0,0,1,142.54,56.7Z" transform="translate(0 -31.61)"/></g><path class="cls-12" d="M120.47,37c9.91-2,19.15-1.43,23,4.12.8,1.16,1.4,4.57,1.69,6,1.65,8-6.73,16.52-18.71,19s-23-2.05-24.67-10.07c-.24-1.17-1-4.48-.85-5.65C101.89,43.43,110.23,39.06,120.47,37Z" transform="translate(0 -31.61)"/><ellipse class="cls-11" cx="122.51" cy="46.8" rx="21.99" ry="14.83" transform="translate(-6.91 -5.98) rotate(-11.62)"/><ellipse class="cls-11" cx="122.67" cy="46.76" rx="15.29" ry="10.13" transform="translate(-6.9 -5.95) rotate(-11.62)"/><ellipse class="cls-12" cx="122.67" cy="45.64" rx="15.29" ry="10.13" transform="translate(-6.68 -5.97) rotate(-11.62)"/><path class="cls-12" d="M124.83,55.69c-8.27,1.7-15.89-1.37-17-6.85a7,7,0,0,1-.12-1.82,6.94,6.94,0,0,0,0,2.87c1.12,5.49,8.74,8.55,17,6.85,7.36-1.51,12.75-6.29,13.06-11.18C136.79,50.07,131.65,54.28,124.83,55.69Z" transform="translate(0 -31.61)"/><path class="cls-6" d="M133.33,52.82c.21.13,5.43,2.16,5.43,2.16l-1.64,1.42-5.48-2.31Z" transform="translate(0 -31.61)"/><path class="cls-6" d="M101.53,53c.1.23.2.45.31.67l1.34,2.08,0,0L118.45,62h0l4.5-.25h0C122.94,61.7,103.74,54.14,101.53,53Z" transform="translate(0 -31.61)"/><path class="cls-6" d="M124.39,31.65c3.78,1.6,14.24,5.69,18.25,7.25C139.57,34.06,132.5,31.24,124.39,31.65Z" transform="translate(0 -31.61)"/><path class="cls-6" d="M134.78,51.52l5,2.5s3.34-3.76,3.87-6l-5.88-2.39v0A9.71,9.71,0,0,1,134.78,51.52Z" transform="translate(0 -31.61)"/><path class="cls-6" d="M118.05,37.53l-6.6-2.43a24.15,24.15,0,0,0-6.76,5.07l6.19,1.51A18.94,18.94,0,0,1,118.05,37.53Z" transform="translate(0 -31.61)"/><g class="cls-3"><path d="M130.5,43.63l2.55-.53.32,1.54-2.49.51a6,6,0,0,1-1,4.21l-2.86.2-.1-.48a5.28,5.28,0,0,0,1-3.31l-3.8.78c-.27,1.83-.72,3.91-4,4.58-2.42.5-4.74-.26-5.65-2.6l-2.53.52-.31-1.54L114.1,47a5.63,5.63,0,0,1,.75-3.41l3,.19.1.48a5.37,5.37,0,0,0-.8,2.12l3.88-.8c.24-1.83.7-3.88,3.91-4.54C127.27,40.56,129.57,41.3,130.5,43.63Zm-9.77,3.61-3.23.66a1.75,1.75,0,0,0,3.23-.66Zm5-3.78a1.74,1.74,0,0,0-1.35,1.43l3.15-.64A1.57,1.57,0,0,0,125.69,43.46Z" transform="translate(0 -31.61)"/></g><path class="cls-11" d="M130.6,44.11l2.55-.53.32,1.54-2.49.51a6,6,0,0,1-1,4.21l-3-.28a5.28,5.28,0,0,0,1-3.31l-3.81.78c-.26,1.83-.71,3.91-4,4.58-2.42.5-4.74-.26-5.65-2.6l-2.53.52L111.71,48l2.49-.51a5.56,5.56,0,0,1,.75-3.41l3,.19a5.2,5.2,0,0,0-.7,2.6l3.88-.8c.24-1.83.7-3.88,3.91-4.54C127.37,41,129.67,41.78,130.6,44.11Zm-9.77,3.61-3.24.66a1.76,1.76,0,0,0,3.24-.66Zm5-3.78a1.73,1.73,0,0,0-1.34,1.43l3.15-.64A1.58,1.58,0,0,0,125.78,43.94Z" transform="translate(0 -31.61)"/><path class="cls-15" d="M143.52,47.12c-1.86,6.71-8.62,11-14.91,13-6.81,2.13-15,2.3-21.34-1.39a11.94,11.94,0,0,1-5.93-7.62c-.11-.47-.83-.27-.73.2,1.47,6.66,8.4,10,14.59,10.78a31,31,0,0,0,22.69-5.92,17.47,17.47,0,0,0,6.36-8.86.38.38,0,0,0-.73-.2Z" transform="translate(0 -31.61)"/><path class="cls-11" d="M71.82,248.69c12.57,2.94,23,8.58,24.43,17.06.31,1.77-.82,6-1.23,7.79-2.37,10.18-16.62,15.55-31.81,12S37.63,270.87,40,260.69c.35-1.48,1.23-5.73,2-7C46.83,246.27,58.83,245.66,71.82,248.69Z" transform="translate(0 -31.61)"/><g class="cls-3"><path class="cls-4" d="M61.28,278.74l-5.13-2.27A10.52,10.52,0,0,1,55,282.72a40.87,40.87,0,0,0,5.47,2.12A12.24,12.24,0,0,0,61.28,278.74Z" transform="translate(0 -31.61)"/></g><g class="cls-3"><path class="cls-4" d="M83.35,279.49l-2.76.75c.4,1.86.65,3.48,1,5.26a25.76,25.76,0,0,0,3.56-1.26C84.61,282.54,84,281.23,83.35,279.49Z" transform="translate(0 -31.61)"/></g><g class="cls-3"><path class="cls-4" d="M86.79,283.46a16.46,16.46,0,0,0,7.37-7.32,29.54,29.54,0,0,0-1.87-2.92L85,278.93A43.09,43.09,0,0,1,86.79,283.46Z" transform="translate(0 -31.61)"/></g><path class="cls-12" d="M71.82,248.69c12.57,2.94,23,8.58,24.43,17.06.31,1.77-.82,6-1.23,7.79-2.37,10.18-16.62,15.55-31.81,12S37.63,270.87,40,260.69c.35-1.48,1.23-5.73,2-7C46.83,246.27,58.83,245.66,71.82,248.69Z" transform="translate(0 -31.61)"/><ellipse class="cls-11" cx="68.88" cy="261.28" rx="18.92" ry="28.05" transform="translate(-201.22 237.32) rotate(-76.85)"/><ellipse class="cls-11" cx="69.07" cy="261.33" rx="12.93" ry="19.5" transform="translate(-201.12 237.54) rotate(-76.85)"/><ellipse class="cls-12" cx="69.24" cy="260.99" rx="12.93" ry="19.5" transform="translate(-200.66 237.44) rotate(-76.85)"/><path class="cls-12" d="M66.81,272.82c-10.49-2.45-17.68-10.07-16.05-17a8.77,8.77,0,0,1,.83-2.17A9,9,0,0,0,50,256.94c-1.63,6.95,5.56,14.58,16,17,9.33,2.18,18.13-.48,21.1-6C83.67,272.71,75.47,274.84,66.81,272.82Z" transform="translate(0 -31.61)"/><path class="cls-6" d="M78.19,274.05c.17.25,5.13,5.39,5.13,5.39l-2.65.77-5.12-5.59Z" transform="translate(0 -31.61)"/><path class="cls-6" d="M41.24,257.3q0,.46,0,.93l.44,3.13v0l14.37,15.3,0,0,5.35,2.13h0C61.41,278.78,43.21,259.76,41.24,257.3Z" transform="translate(0 -31.61)"/><path class="cls-6" d="M79.15,244.74c3.52,3.87,13.45,14.2,17.26,18.16C95.45,255.65,88.76,248.6,79.15,244.74Z" transform="translate(0 -31.61)"/><path class="cls-6" d="M80.57,273.31,85,278.88s5.89-2.57,7.69-4.88l-5.54-5.9h0A12.34,12.34,0,0,1,80.57,273.31Z" transform="translate(0 -31.61)"/><path class="cls-6" d="M68.66,248.16l-6.34-6.34a30.92,30.92,0,0,0-10.54,2.26l6.36,5.07A24.09,24.09,0,0,1,68.66,248.16Z" transform="translate(0 -31.61)"/><g class="cls-3"><path d="M79.82,261.88l3.24.76-.46,1.95-3.15-.74A7.63,7.63,0,0,1,76,268.17l-3.42-1.29.15-.61a6.72,6.72,0,0,0,2.93-3.3l-4.83-1.13c-1.28,2-2.92,4.15-7,3.19-3.07-.72-5.35-2.84-5.15-6l-3.21-.75.45-1.95L59,257a7,7,0,0,1,2.69-3.54l3.32,1.8-.14.61c-.83.71-1.71,1.23-2.06,2l4.92,1.14c1.26-2,2.88-4.12,7-3.16C77.73,256.6,80,258.69,79.82,261.88Zm-13.24-1-4.11-1a2.24,2.24,0,0,0,4.11,1Zm7.76-1.73a2.19,2.19,0,0,0-2.33.94l4,.93A2,2,0,0,0,74.34,259.12Z" transform="translate(0 -31.61)"/></g><path class="cls-11" d="M79.68,262.49l3.24.76-.46,1.95-3.15-.74a7.66,7.66,0,0,1-3.45,4.32l-3.28-1.9a6.78,6.78,0,0,0,2.94-3.3l-4.83-1.13c-1.29,2-2.92,4.15-7.06,3.18-3.06-.71-5.34-2.83-5.14-6l-3.21-.75.45-2,3.15.74a7.21,7.21,0,0,1,2.69-3.55l3.33,1.81a6.64,6.64,0,0,0-2.2,2.63l4.92,1.15c1.26-2,2.88-4.12,7-3.17C77.59,257.21,79.85,259.3,79.68,262.49Zm-13.24-1-4.11-1a2.24,2.24,0,0,0,4.11,1Zm7.75-1.72a2.19,2.19,0,0,0-2.32.93l4,.94A2,2,0,0,0,74.19,259.73Z" transform="translate(0 -31.61)"/><path class="cls-15" d="M93.15,272.93c-6.05,7.17-16.94,8.39-25.66,7s-18.07-5.73-23.08-13.38A15.09,15.09,0,0,1,41.93,255c.1-.47-.62-.67-.73-.2-1.78,8,3.79,15.22,10,19.53a39.45,39.45,0,0,0,29.82,6.08c4.75-1,9.44-3.18,12.62-7,.31-.37-.22-.9-.53-.53Z" transform="translate(0 -31.61)"/></g><g id="Speech_Bubble" data-name="Speech Bubble"><path class="cls-11" d="M328.56,137.21A18.27,18.27,0,1,1,358,143.52l.15,5.49-5.44-2-.27.13A18.27,18.27,0,0,1,328.56,137.21Z" transform="translate(0 -31.61)"/><path class="cls-16" d="M338,110.77a18.54,18.54,0,0,0-12.13,12.55.37.37,0,0,0,.72.2,17.79,17.79,0,0,1,11.6-12c.46-.15.27-.87-.19-.72Z" transform="translate(0 -31.61)"/><path class="cls-16" d="M325.2,126a6.87,6.87,0,0,0-.38,2.77.39.39,0,0,0,.38.38.38.38,0,0,0,.37-.38,6.41,6.41,0,0,1,.35-2.57.38.38,0,0,0-.26-.46.37.37,0,0,0-.46.26Z" transform="translate(0 -31.61)"/><polygon class="cls-4" points="344.13 106.45 336.14 99.73 338.49 96.94 343.85 101.45 352.09 92.72 354.74 95.23 344.13 106.45"/></g><g id="Clipboard"><rect class="cls-17" x="99.31" y="49.81" width="199.76" height="292.17" rx="6.75"/><rect class="cls-18" x="99.31" y="49.81" width="199.76" height="292.17" rx="6.75"/><polygon class="cls-2" points="114.95 57.8 106.14 57.8 106.14 334.56 290.85 336.13 295.95 329.78 291.48 68.71 114.95 57.8"/><polygon class="cls-1" points="295.95 329.78 113.32 329.78 113.32 57.8 106.14 57.8 106.14 336.13 290.85 336.13 295.95 329.78"/><polygon class="cls-12" points="106.14 336.13 113.32 329.78 295.95 329.78 290.85 336.13 106.14 336.13"/><path class="cls-19" d="M311.68,352.46H131.23c-17.58-43.75-20.7-155-17.91-263.06H292.5C291,197.36,294.56,294.29,311.68,352.46Z" transform="translate(0 -31.61)"/><polygon class="cls-12" points="167.12 49.81 167.12 70.96 232.9 71.33 232.8 67.44 201.22 48.77 167.12 49.81"/><path class="cls-15" d="M178.63,45.35h49.79A7.61,7.61,0,0,1,236,53V67.44a0,0,0,0,1,0,0H171a0,0,0,0,1,0,0V53A7.61,7.61,0,0,1,178.63,45.35Z"/><path class="cls-15" d="M191.5,78.69,189,70.13a1,1,0,0,1,.87-1.27H219a1,1,0,0,1,.86,1.3l-2.91,9a.92.92,0,0,1-.88.65l-23.7-.4A.93.93,0,0,1,191.5,78.69Z" transform="translate(0 -31.61)"/><path class="cls-20" d="M121.23,77.28h45.89" transform="translate(0 -31.61)"/><line class="cls-20" x1="118.63" y1="45.68" x2="111.5" y2="45.68"/><path d="M192.59,76.6h25.25a.75.75,0,0,0,0-1.5H192.59a.75.75,0,0,0,0,1.5Z" transform="translate(0 -31.61)"/><path class="cls-16" d="M167.55,124.8c0,1.69-1.4,2.69-4,2.69h-5.3v-9.82h5c2.58,0,3.84,1,3.84,2.57a2.31,2.31,0,0,1-1.32,2.13A2.47,2.47,0,0,1,167.55,124.8ZM161,119.68v1.89h1.91c.93,0,1.4-.32,1.4-.95s-.47-.94-1.4-.94Zm3.79,4.81c0-.68-.5-1-1.46-1H161v2h2.33C164.25,125.48,164.75,125.16,164.75,124.49Z" transform="translate(0 -31.61)"/><path class="cls-16" d="M175.58,125.58h-4.15l-.77,1.91h-2.84l4.34-9.82h2.73l4.35,9.82h-2.89Zm-.82-2-1.26-3.14-1.26,3.14Z" transform="translate(0 -31.61)"/><path class="cls-16" d="M189.36,117.67v9.82h-2.28l-4.33-5.23v5.23H180v-9.82h2.29l4.33,5.23v-5.23Z" transform="translate(0 -31.61)"/><path class="cls-16" d="M195.12,123.93l-1,1.1v2.46h-2.75v-9.82h2.75v4.08l3.8-4.08h3.06l-4,4.35,4.23,5.47h-3.23Z" transform="translate(0 -31.61)"/><path class="cls-11" d="M206,117.67h2.77v7.62h4.69v2.2H206Z" transform="translate(0 -31.61)"/><path class="cls-11" d="M213.85,122.58a5.47,5.47,0,1,1,5.46,5.1A5.14,5.14,0,0,1,213.85,122.58Zm8.11,0a2.65,2.65,0,1,0-2.65,2.8A2.63,2.63,0,0,0,222,122.58Z" transform="translate(0 -31.61)"/><path class="cls-11" d="M232.66,125.58h-4.15l-.77,1.91h-2.83l4.33-9.82H232l4.35,9.82h-2.89Zm-.81-2-1.26-3.14-1.27,3.14Z" transform="translate(0 -31.61)"/><path class="cls-11" d="M246.45,117.67v9.82h-2.29l-4.33-5.23v5.23h-2.72v-9.82h2.28l4.34,5.23v-5.23Z" transform="translate(0 -31.61)"/><path class="cls-1" d="M132.84,145.86h46a.75.75,0,0,0,0-1.5h-46a.75.75,0,0,0,0,1.5Z" transform="translate(0 -31.61)"/><path class="cls-15" d="M132.84,155.33H273.75a.75.75,0,0,0,0-1.5H132.84a.75.75,0,0,0,0,1.5Z" transform="translate(0 -31.61)"/><path class="cls-15" d="M132.84,164.8H273.75a.75.75,0,0,0,0-1.5H132.84a.75.75,0,0,0,0,1.5Z" transform="translate(0 -31.61)"/><path class="cls-15" d="M132.84,174.26H273.75a.75.75,0,0,0,0-1.5H132.84a.75.75,0,0,0,0,1.5Z" transform="translate(0 -31.61)"/><path class="cls-15" d="M132.84,183.73H273.75a.75.75,0,0,0,0-1.5H132.84a.75.75,0,0,0,0,1.5Z" transform="translate(0 -31.61)"/><path class="cls-15" d="M132.84,193.2H273.75a.75.75,0,0,0,0-1.5H132.84a.75.75,0,0,0,0,1.5Z" transform="translate(0 -31.61)"/><path class="cls-15" d="M133.12,203.9h85a.75.75,0,0,0,0-1.5h-85a.75.75,0,0,0,0,1.5Z" transform="translate(0 -31.61)"/><path class="cls-1" d="M131.91,220.14H273.56a.75.75,0,0,0,0-1.5H131.91a.75.75,0,0,0,0,1.5Z" transform="translate(0 -31.61)"/><path class="cls-15" d="M133.39,229.86H275a.75.75,0,0,0,0-1.5H133.39a.75.75,0,0,0,0,1.5Z" transform="translate(0 -31.61)"/><path class="cls-15" d="M133.69,240H275.34a.75.75,0,0,0,0-1.5H133.69a.75.75,0,0,0,0,1.5Z" transform="translate(0 -31.61)"/><path class="cls-15" d="M134,250.07H275.64a.75.75,0,0,0,0-1.5H134a.75.75,0,0,0,0,1.5Z" transform="translate(0 -31.61)"/><path class="cls-15" d="M134.29,260.17H276a.75.75,0,0,0,0-1.5H134.29a.75.75,0,0,0,0,1.5Z" transform="translate(0 -31.61)"/><path class="cls-15" d="M134.6,270.27H276.25a.75.75,0,0,0,0-1.5H134.6a.75.75,0,0,0,0,1.5Z" transform="translate(0 -31.61)"/><path class="cls-15" d="M137.65,280.37H280.12a.75.75,0,0,0,0-1.5H137.65a.75.75,0,0,0,0,1.5Z" transform="translate(0 -31.61)"/><path class="cls-15" d="M141.38,290.47H281.63a.75.75,0,0,0,0-1.5H141.38a.75.75,0,0,0,0,1.5Z" transform="translate(0 -31.61)"/><path class="cls-15" d="M227.47,203.6h23.81a.75.75,0,0,0,0-1.5H227.47a.75.75,0,0,0,0,1.5Z" transform="translate(0 -31.61)"/><path class="cls-1" d="M152.68,333.72a54.21,54.21,0,0,0,26.55-10.57c3.27-2.48,7.41-5.86,7.27-10.4-.11-3.63-3.05-6-6.3-7.05-7.33-2.28-16.46,1.89-19.78,8.77-3.85,7.95,1.73,16.44,9.23,19.55,4.67,1.94,9.86,2.15,14.84,1.68a73.49,73.49,0,0,0,15-3,75.15,75.15,0,0,0,14.07-6c3.25-1.79,7.58-4.76,7.17-9-.35-3.64-3.84-5.23-7.06-5.64a27.1,27.1,0,0,0-6.17.1,27.91,27.91,0,0,0-6.83,1.39c-3.82,1.41-7.16,4.39-7.76,8.6s2.2,7.13,5.81,8.56c4.3,1.7,9.4,1.95,14,1.93a57.57,57.57,0,0,0,15.05-2.07,56.9,56.9,0,0,0,7.07-2.47,24.22,24.22,0,0,0,6.13-3.36c2.77-2.31,4.35-7.68.2-9.54a3.85,3.85,0,0,0-4.17.52c-.74.62.33,1.68,1.06,1.06,1.47-1.24,3.65,0,4.07,1.68.55,2.16-.89,4.23-2.54,5.47a25.69,25.69,0,0,1-5.42,2.84,56.26,56.26,0,0,1-6.16,2.17,54.13,54.13,0,0,1-25.6,1.27c-3.32-.68-7.41-2.23-8-6.05s2.32-7.15,5.51-8.67a26.87,26.87,0,0,1,11.67-2.07c2.8,0,6.88.66,7.59,3.95.87,4-4,6.82-6.94,8.39a74.37,74.37,0,0,1-12.07,5.18,75.55,75.55,0,0,1-12.32,2.91,39.88,39.88,0,0,1-13.17.13c-7.18-1.36-14.94-7.17-13.92-15.33.87-7,8.58-12.06,15.3-12,3,0,6.67,1,8.29,3.75,2.17,3.69-1,7.51-3.71,9.83a52.43,52.43,0,0,1-27.91,12.07c-1,.11-1,1.62,0,1.5Z" transform="translate(0 -31.61)"/><rect class="cls-21" x="150.6" y="78.47" width="103.44" height="22.34"/><rect class="cls-22" x="152.68" y="85.67" width="53.28" height="10.22"/></g><g id="Characters"><path class="cls-23" d="M314.14,235.58l7-1.29-.43,10s-2.46,1-7.78-2.29Z" transform="translate(0 -31.61)"/><polygon class="cls-23" points="329.49 205.96 328.21 212.13 320.64 212.69 321.06 202.63 329.49 205.96"/><path class="cls-23" d="M273.31,192.31s11.87,28.21,15.89,30.08c5.47,2.51,20.05,10.2,26.23,13.83.42,1.39.43,5.21-.24,6.31-10.12-.8-30.87-7.67-34.86-11.5-9.1-8.74-18.67-35.3-18.67-35.3" transform="translate(0 -31.61)"/><g id="freepik--character-1--inject-2"><path class="cls-24" d="M328.73,233.42l-6.24,3.22.55,2.24,5,5s3.61-2.81,3.53-6.72Z" transform="translate(0 -31.61)"/><polygon class="cls-24" points="327.82 202.7 322.11 201.62 318.44 203.19 320.88 203.6 322.49 205.05 327.82 202.7"/><path class="cls-15" d="M384.22,151.27c-.15.7-.64,1.2-1.06,1a1.24,1.24,0,0,1-.58-1.45c.14-.71.65-1.21,1.06-1.06A1.21,1.21,0,0,1,384.22,151.27Z" transform="translate(0 -31.61)"/><path class="cls-25" d="M383.65,152.48a26.3,26.3,0,0,1-4.61,5.37,4.16,4.16,0,0,0,3.25,1.32Z" transform="translate(0 -31.61)"/><path class="cls-15" d="M387.56,147.86a.5.5,0,0,0,.29-.12.43.43,0,0,0,0-.6,4.22,4.22,0,0,0-3.61-1.4.43.43,0,0,0-.28.54.44.44,0,0,0,.42.3h0a3.37,3.37,0,0,1,2.84,1.14A.41.41,0,0,0,387.56,147.86Z" transform="translate(0 -31.61)"/><path class="cls-24" d="M403.39,163.77c-1.22,6.23-1.95,14.85,2.39,19,0,0-1.69,6.33-13.26,6.33-12.72,0-6.12-5.55-6.12-5.55,5.28-1.63,5.28-7.66,4-12.49Z" transform="translate(0 -31.61)"/><path class="cls-11" d="M407.11,187.13c1-1.58.67-6.39-.53-7.17-1.93-1.26-9.87-1.12-20.41,2,1.43,4.59-.89,7.17-.89,7.17Z" transform="translate(0 -31.61)"/><path class="cls-15" d="M415.65,184.7s30.73,35.27,27.29,52-25.73,25.94-25.73,25.94l-4.74-8.32s14.14-11.65,15.85-18.49-13.21-25-13.21-25Z" transform="translate(0 -31.61)"/><path class="cls-26" d="M415.93,199.17c3.76,3.71,4.85,11.31,4.44,16.49-.92-1.57-1.9-3.15-2.91-4.68-1.52-2.36-3.13-4.65-4.76-7-.45-.63-.91-1.27-1.38-1.91-.09-.41-.17-.83-.25-1.23Z" transform="translate(0 -31.61)"/><polygon class="cls-24" points="392.57 429.59 383.34 427.73 383.29 406.06 392.51 407.92 392.57 429.59"/><path class="cls-15" d="M381.25,455.16l3.52,0a2.66,2.66,0,0,1,2.05,1c2.14,2.63,3.62,1.61,5.72-.89,1.4-.17,1.84,1.36,2,1.77l3,9.1a1.38,1.38,0,0,1-.95,1.79,1.61,1.61,0,0,1-.44.06l-11.61.1-16.26.15c-4.43,0-5.54-4.21-3.73-4.62,8.14-1.81,13.86-4.17,16.3-6.47C381.29,456.69,380.79,456.4,381.25,455.16Z" transform="translate(0 -31.61)"/><path class="cls-16" d="M376.14,458.31a16.38,16.38,0,0,0,3.28-.43.18.18,0,0,0,.11-.24.19.19,0,0,0-.12-.11c-.51-.23-5-2.15-6.06-1.4a.58.58,0,0,0-.26.6,1.4,1.4,0,0,0,.64,1.09A4.22,4.22,0,0,0,376.14,458.31Zm2.58-.68c-1.29.24-3.69.57-4.72-.13a1.14,1.14,0,0,1-.47-.8.23.23,0,0,1,.11-.25C374.23,456,376.86,456.88,378.72,457.63Z" transform="translate(0 -31.61)"/><path class="cls-16" d="M379.37,457.89h.14a.17.17,0,0,0,.05-.2c0-.18-1.22-4.3-3.62-4-.59.08-.75.36-.77.59-.1,1.09,2.76,3.14,4.1,3.65ZM376.2,454c1.53,0,2.51,2.39,2.85,3.35-1.46-.71-3.55-2.41-3.45-3.08,0,0,0-.2.44-.25Z" transform="translate(0 -31.61)"/><path class="cls-27" d="M378.92,457.77a4.46,4.46,0,0,1,3.07,1.8" transform="translate(0 -31.61)"/><path class="cls-27" d="M376.8,459.36a4.44,4.44,0,0,1,3.07,1.8" transform="translate(0 -31.61)"/><path class="cls-27" d="M374.14,460.7a4.51,4.51,0,0,1,3.07,1.81" transform="translate(0 -31.61)"/><polygon class="cls-24" points="459.24 424.48 449.92 425.85 442.53 405.48 451.84 404.11 459.24 424.48"/><path class="cls-15" d="M446.54,454.23l3.3-1.22a2.64,2.64,0,0,1,2.26.22c2.9,1.75,3.95.29,5.08-2.77,1.26-.64,2.19.65,2.46,1l5.92,7.54a1.38,1.38,0,0,1-.29,2,1.79,1.79,0,0,1-.39.2l-10.89,4-15.26,5.65c-4.15,1.54-6.63-2.09-5.07-3.09,7-4.45,11.63-8.61,13.15-11.6C447.1,455.66,446.53,455.55,446.54,454.23Z" transform="translate(0 -31.61)"/><path class="cls-16" d="M442.8,458.93a16.69,16.69,0,0,0,2.94-1.52.18.18,0,0,0,0-.26.2.2,0,0,0-.16-.07c-.55,0-5.41-.33-6.17.75a.58.58,0,0,0,0,.64,1.42,1.42,0,0,0,1,.81A4.17,4.17,0,0,0,442.8,458.93Zm2.2-1.52c-1.13.67-3.28,1.79-4.49,1.48a1.16,1.16,0,0,1-.71-.59.24.24,0,0,1,0-.28C440.23,457.44,443,457.34,445,457.41Z" transform="translate(0 -31.61)"/><path class="cls-16" d="M445.7,457.43a.28.28,0,0,0,.13,0,.2.2,0,0,0,0-.21c-.07-.16-2.6-3.62-4.77-2.54-.53.27-.59.59-.52.81.28,1.07,3.66,2,5.09,2.05Zm-4.31-2.57c1.44-.53,3.18,1.39,3.83,2.18-1.63-.17-4.16-1.07-4.3-1.73,0-.05-.08-.19.33-.39Z" transform="translate(0 -31.61)"/><path class="cls-27" d="M445.23,457.47a4.49,4.49,0,0,1,3.5.67" transform="translate(0 -31.61)"/><path class="cls-27" d="M443.78,459.69a4.42,4.42,0,0,1,3.49.66" transform="translate(0 -31.61)"/><path class="cls-27" d="M441.73,461.85a4.47,4.47,0,0,1,3.49.67" transform="translate(0 -31.61)"/><path class="cls-15" d="M388.4,255.23s10,61.8,15.5,85c6,25.35,38.26,109.28,38.26,109.28L458,446.27s-22.56-68.35-27.6-103.8c-3.88-27.22-11.52-87.22-11.52-87.22Z" transform="translate(0 -31.61)"/><path class="cls-28" d="M388.4,255.23s10,61.8,15.5,85c6,25.35,38.26,109.28,38.26,109.28L458,446.27s-22.56-68.35-27.6-103.8c-3.88-27.22-11.52-87.22-11.52-87.22Z" transform="translate(0 -31.61)"/><path class="cls-29" d="M394.21,277.24c10.6,2.09,9.74,37.14,8.47,57.49-3-14.38-7.8-37.58-10.87-57.2A3.74,3.74,0,0,1,394.21,277.24Z" transform="translate(0 -31.61)"/><path class="cls-15" d="M368.7,255.23s-1.28,60.45-.26,85.12C369.49,366,379.8,450,379.8,450h15.83s.57-82.48,1.28-107.68c.76-27.46,4.61-87.07,4.61-87.07Z" transform="translate(0 -31.61)"/><path class="cls-28" d="M368.7,255.23s-1.28,60.45-.26,85.12C369.49,366,379.8,450,379.8,450h15.83s.57-82.48,1.28-107.68c.76-27.46,4.61-87.07,4.61-87.07Z" transform="translate(0 -31.61)"/><path class="cls-15" d="M370.44,193c-1.71,8.75-3.78,37.48-1.14,72.14l49.95-.29c.28-6.2-5.25-43.76-.54-73.67a6.48,6.48,0,0,0-5.6-7.34l-.12,0c-2.44-.32-5.28-.62-8.07-.75a171.49,171.49,0,0,0-19,0c-2.07.19-4.14.48-6,.79A11.65,11.65,0,0,0,370.44,193Z" transform="translate(0 -31.61)"/><path class="cls-26" d="M370.67,201.71l7.88,1.95c.61,7.36-4.25,15.69-9.1,22.06A211.56,211.56,0,0,1,370.67,201.71Z" transform="translate(0 -31.61)"/><path class="cls-24" d="M408.15,154.56c-2.3,8.59-3.17,13.72-8.52,17.3-8,5.38-17.93-.79-18.21-9.89-.27-8.19,3.54-20.86,12.75-22.59a12.12,12.12,0,0,1,14,15.18Z" transform="translate(0 -31.61)"/><path class="cls-15" d="M390.31,154.66c-2.05-3-2.83-7.62-1.4-9.85-1.34.56-11,1.22-7.21-5.66s11.38-8.78,18-6.88l-3.22.93s9-.65,13.44,3a25,25,0,0,1-2.5,0s9.69,4.57,5.47,8c6.8,5.18,2.19,12.36-9,23.06-2,1.76-7.49,1.11-8.71.06C396,162.7,391.46,156.37,390.31,154.66Z" transform="translate(0 -31.61)"/><path class="cls-15" d="M389.17,148.81c-2,1.47-4.49,5.78-5.64,7.93s-2.36,1.88-2.94,2.74-3,15.31-.41,17.62,10.19-1.34,11.19-4-.83-9.18-1.33-10.67a15.1,15.1,0,0,1,.45-7.72C391.37,152.18,389.17,148.81,389.17,148.81Z" transform="translate(0 -31.61)"/><path class="cls-24" d="M393.68,155.07a8.14,8.14,0,0,1-3.85,5c-2.33,1-2.62-1.66-2.16-4.22.41-2.33,1.05-4.22,2.94-5.13C392.84,149.59,394.45,152.51,393.68,155.07Z" transform="translate(0 -31.61)"/></g><path class="cls-15" d="M387,193c-.53,1.13-12.29,27.78-26.36,35.61a136.41,136.41,0,0,1-28.77,11.61l-4.09-7.54s22.3-12.45,26.81-17.89S376,186.17,376,186.17Z" transform="translate(0 -31.61)"/><polygon class="cls-23" points="209.56 421.53 219.99 422.16 226.57 399.57 212.68 396.55 209.56 421.53"/><path class="cls-15" d="M221.09,451.9l-3.34-.63a2.37,2.37,0,0,0-2.09.63c-2.42,2.27-3.68,1-5.31-1.87-1.3-.4-1.94,1.06-2.13,1.45l-4.21,8.6a1.45,1.45,0,0,0,.65,1.95,1.47,1.47,0,0,0,.4.14l11,2.07,15.43,2.92c4.21.79,5.88-3.28,4.22-4-7.47-3.2-12.55-6.53-14.53-9.25C220.83,453.43,221.34,453.22,221.09,451.9Z" transform="translate(0 -31.61)"/><path class="cls-16" d="M227.84,455.85a1.42,1.42,0,0,0,.78-1,.64.64,0,0,0-.16-.64c-.91-.94-5.45.23-6,.37a.19.19,0,0,0-.07.35,15.53,15.53,0,0,0,3,1A3.88,3.88,0,0,0,227.84,455.85Zm.29-1.36a.25.25,0,0,1,.07.27,1.15,1.15,0,0,1-.57.72c-1.08.53-3.31-.21-4.5-.67C225,454.37,227.63,454,228.13,454.49Z" transform="translate(0 -31.61)"/><path class="cls-16" d="M222.56,455c1.36-.29,4.37-1.85,4.43-3,0-.23-.09-.54-.64-.72-2.24-.69-4,3.23-4,3.4a.2.2,0,0,0,0,.21.31.31,0,0,0,.13,0Zm3.65-3.37c.42.13.39.28.38.33,0,.69-2.24,2-3.73,2.5.46-.9,1.75-3.14,3.2-2.87Z" transform="translate(0 -31.61)"/><path class="cls-27" d="M222.92,454.91a4.13,4.13,0,0,0-3.18,1.29" transform="translate(0 -31.61)"/><path class="cls-27" d="M224.7,456.86a4.13,4.13,0,0,0-3.18,1.29" transform="translate(0 -31.61)"/><path class="cls-27" d="M227,458.66a4.14,4.14,0,0,0-3.18,1.29" transform="translate(0 -31.61)"/><polygon class="cls-23" points="261.72 422.15 272.15 421.48 275.88 398.25 261.72 396.97 261.72 422.15"/><path class="cls-15" d="M273,451.09l-3.39-.21a2.4,2.4,0,0,0-2,.89c-2.13,2.55-3.53,1.45-5.5-1.2-1.34-.24-1.81,1.29-1.94,1.7l-3.11,9.06a1.46,1.46,0,0,0,.88,1.86,1.56,1.56,0,0,0,.42.08l11.19.7,15.67,1c4.28.27,5.43-4,3.7-4.49-7.81-2.24-13.27-4.92-15.57-7.37C272.94,452.65,273.42,452.37,273,451.09Z" transform="translate(0 -31.61)"/><path class="cls-16" d="M280.2,454.17a1.36,1.36,0,0,0,.65-1.07.63.63,0,0,0-.24-.61c-1-.82-5.38.9-5.87,1.1a.16.16,0,0,0-.12.11.18.18,0,0,0,.1.24,15.26,15.26,0,0,0,3.15.61A3.75,3.75,0,0,0,280.2,454.17Zm.12-1.38a.25.25,0,0,1,.1.26,1.15,1.15,0,0,1-.47.79c-1,.65-3.32.2-4.55-.11C277.21,453.06,279.76,452.35,280.32,452.79Z" transform="translate(0 -31.61)"/><path class="cls-16" d="M274.86,454c1.31-.46,4.1-2.38,4-3.5,0-.23-.16-.52-.73-.63-2.31-.41-3.56,3.7-3.57,3.88a.18.18,0,0,0,0,.2.29.29,0,0,0,.13,0Zm3.2-3.79c.43.07.42.22.42.28.08.68-2,2.3-3.4,2.94.35-.95,1.36-3.34,2.83-3.24Z" transform="translate(0 -31.61)"/><path class="cls-27" d="M275.2,453.86a4.07,4.07,0,0,0-3,1.67" transform="translate(0 -31.61)"/><path class="cls-27" d="M277.21,455.57a4.13,4.13,0,0,0-3,1.68" transform="translate(0 -31.61)"/><path class="cls-27" d="M279.75,457.07a4.13,4.13,0,0,0-3,1.68" transform="translate(0 -31.61)"/><path class="cls-11" d="M273.83,263.43c2.71-2.12,14.64,103.77,3.7,182.34l-17.64-.25s-1.35-67.75-4-98.3-14.65-83-14.65-83Z" transform="translate(0 -31.61)"/><path class="cls-26" d="M274,263.07c2.71-2.13,14.64,103.77,3.7,182.33l-17.64-.25s-1.35-67.74-4-98.3-14.65-82.94-14.65-82.94Z" transform="translate(0 -31.61)"/><path class="cls-26" d="M254.93,337.89s.95-7.91,1.17-17.9a83.48,83.48,0,0,0-4.57-29.08h0l-2.08,12.87Z" transform="translate(0 -31.61)"/><path class="cls-11" d="M221,355.6c.85-39.38-2.75-80.44,2.3-89.73l31.31-3.7c-.09.63-5.88,76.78-8.41,97.66-3.46,27.56-23.89,89.1-23.89,89.1l-14.84-1.8S214.86,386.61,221,355.6Z" transform="translate(0 -31.61)"/><path class="cls-26" d="M221.21,356.56c.85-39.38-2.75-80.44,2.3-89.73l31.31-3.7c-.09.63-5.88,76.78-8.41,97.66-3.46,27.56-23.89,89.09-23.89,89.09l-14.84-1.79S215.05,387.57,221.21,356.56Z" transform="translate(0 -31.61)"/><path class="cls-26" d="M276,272s-5.42,9-24.06,7.25-30.38-7-30.38-7a22.06,22.06,0,0,1,1.25-5.23l52.32.74Z" transform="translate(0 -31.61)"/><path class="cls-15" d="M251.49,179.76c0-.36,14.3,0,16,2.57s10.83,78.47,11.18,85.31c.36,7-42.34,13-58.92,1.37,0,0,1.66-56.59.81-66.53s4.53-18.85,4.53-18.85l10.13-2.39Z" transform="translate(0 -31.61)"/><path class="cls-15" d="M258,187.78c.47,7.13,5.22,28.21,5.22,28.21l21.09-6.17s-4.39-15.61-9.55-22.17C268,179.13,257.34,178.6,258,187.78Z" transform="translate(0 -31.61)"/><g class="cls-7"><path d="M271.51,213.73c-1.24-5.94-2.42-11.9-3.61-17.85-.09-.47-.81-.27-.72.2,1.19,5.95,2.37,11.91,3.61,17.85.1.48.82.28.72-.2Z" transform="translate(0 -31.61)"/></g><path class="cls-23" d="M217.63,195.79c-3.11.91-4.45,7.56-6.09,14-3.13,12.27-6.44,26.35-6.44,32.76,0,12.81,10.45,38.65,10.45,38.65l7.46-1.64s-5.19-33.94-4.85-36c1.29-7.67,9.47-33.12,9.33-39.76s-1.71-6.06-5.68-7.9A6.65,6.65,0,0,0,217.63,195.79Z" transform="translate(0 -31.61)"/><path class="cls-23" d="M214.72,278.59l6.64-2.63,2.76,4.88c.35.54.67,1,.91,1.45,2.26,3.82,5.34,9.25,5.82,12.56s-1.55,6.95-2.43,5.15c-.62-1.29-.14-2.75-.38-3.89-.6-2.87-1.12-4.61-1.12-4.61.34,5.6-1.23,9.62-2,10.06a1.61,1.61,0,0,1-2.09-.43s-.07.86-2.21,0c-1.55-.6-.21-7.31-.21-7.31s-2,6-3.64,5.34.87-5.93,1-9c.06-1.14-2.26-3.05-2.41-5.67C215.28,282.88,215.61,280.56,214.72,278.59Z" transform="translate(0 -31.61)"/><path class="cls-30" d="M223,301.17a21.88,21.88,0,0,0,1.38-5.56,18.28,18.28,0,0,0-1-6.6c-.14-.46-.87-.27-.73.2a17.45,17.45,0,0,1,1,6.4,21.81,21.81,0,0,1-1.35,5.37c-.16.45.56.65.72.19Z" transform="translate(0 -31.61)"/><path class="cls-30" d="M220.72,294c.07-1,.2-1.91.18-2.86a4.09,4.09,0,0,0-.71-2.38.38.38,0,0,0-.51-.14.38.38,0,0,0-.13.52,3.6,3.6,0,0,1,.6,2.19c0,.89-.11,1.78-.18,2.67,0,.48.71.48.75,0Z" transform="translate(0 -31.61)"/><path class="cls-15" d="M216.8,190.93c-4.36,7.65-8,20-8,20l17.51,6.7c3-6.09,6.57-12.69,6.92-19.47.37-9.23-1.31-15.65-7.13-14.79C223.11,183.85,219.37,186.42,216.8,190.93Z" transform="translate(0 -31.61)"/><g class="cls-7"><path d="M225,185.52c7.27,5.74,5.63,15.9,4,23.81-.1.47.63.68.72.2,1.65-8.16,3.26-18.63-4.23-24.54-.38-.3-.91.23-.53.53Z" transform="translate(0 -31.61)"/></g><path class="cls-23" d="M238.16,181s6-6.88-2.07-16.81c-.92-1.13-1-3.22-1.15-4.3l15.36,7.66a33.47,33.47,0,0,0,2.94,12.08h0a7.68,7.68,0,0,1-11.65,3.76Z" transform="translate(0 -31.61)"/><path class="cls-12" d="M251,172.29l-8.54-1.81c1,2.53,3.58,6.09,9.43,5.81A25.75,25.75,0,0,1,251,172.29Z" transform="translate(0 -31.61)"/><path class="cls-15" d="M259.16,140.69c2,3.21,1.9,11.62-3.6,10.57S255.69,135.18,259.16,140.69Z" transform="translate(0 -31.61)"/><path class="cls-23" d="M234.18,152.82c1.82,9.13,3,13.61,8.27,17.66,22.71,13.22,25.68-27.75,7.37-32.77A12.84,12.84,0,0,0,234.18,152.82Z" transform="translate(0 -31.61)"/><path class="cls-15" d="M254.39,162.05a5,5,0,0,1-3.24-1.9.38.38,0,0,0-.53,0,.4.4,0,0,0,0,.54,5.68,5.68,0,0,0,3.77,2.11.38.38,0,0,0,0-.75Z" transform="translate(0 -31.61)"/><path class="cls-15" d="M227.92,142.94s8.31-1.39,9.71-1.53,3,4.81,2.8,6.45-2.33,2.4-2.23,3.94c.1,1.32,2.42,5.12,1.68,6.93-.88.73-5.92-2.1-5.92-2.1l-2.88,1.14S222.46,146.83,227.92,142.94Z" transform="translate(0 -31.61)"/><path class="cls-15" d="M227.91,143.5a3.35,3.35,0,0,1-1.11-2.93.62.62,0,0,1,1-.39l.08.08a.61.61,0,0,0,1-.25c.88-2.14,3.71-5.24,10.47-6.94,9.36-2.34,11.92.78,14.63-.71,1.22-.67,1.19-1.24.78-1.67a.62.62,0,0,1,.5-1,4.55,4.55,0,0,1,4.31,2.53c1.63,3.55.47,9.89-7.94,9.72s-10,2.6-14.23,2a68.78,68.78,0,0,0-9.08-.3A.58.58,0,0,1,227.91,143.5Z" transform="translate(0 -31.61)"/><path class="cls-23" d="M231.59,160.82c1.75,4.79,10.22,7.19,8.95,0C239.74,153.84,229.26,152.39,231.59,160.82Z" transform="translate(0 -31.61)"/><path class="cls-15" d="M247.85,153.76c.29,2.23,2.56,1.87,2.23-.33S247.52,151.56,247.85,153.76Z" transform="translate(0 -31.61)"/><path class="cls-15" d="M256.68,152.72c.28,2.22,2.55,1.87,2.23-.33S256.35,150.52,256.68,152.72Z" transform="translate(0 -31.61)"/><path class="cls-31" d="M253.91,152.48s3.62,4.28,4.84,6.05c-1.15,1.37-3.48,1.13-3.48,1.13Z" transform="translate(0 -31.61)"/><path class="cls-15" d="M244.76,149.46a.47.47,0,0,0,.44-.1,3.57,3.57,0,0,1,3.08-1c2-.82-1.62-1.77-3.68.34A.45.45,0,0,0,244.76,149.46Z" transform="translate(0 -31.61)"/><path class="cls-32" d="M233.35,158.16c1.48-2.19,4.38.73,4.16,3.49" transform="translate(0 -31.61)"/><path class="cls-15" d="M259.12,148.53a.45.45,0,0,0,0-.79,4.4,4.4,0,0,0-4-.28.45.45,0,0,0,.39.8C255.76,147.89,257.49,148,259.12,148.53Z" transform="translate(0 -31.61)"/><path class="cls-24" d="M328.6,243.41c-2.84,3.05-10.42,2.52-11.55,1.72s4.11-1.72,4.11-1.72c-3.18.84-6.85.58-7.44,0s.06-3.46,1-4.19,7.75-2.56,7.75-2.56-2-2.24-4.05-1.87c1.84-2,3.2-2.34,4.69-2.09a33.1,33.1,0,0,1,4.69,1.6Z" transform="translate(0 -31.61)"/><path class="cls-31" d="M319.63,243.94a9.48,9.48,0,0,0,2.66-.13c.59-.13,1.15-.36,1.73-.53a.38.38,0,0,0-.2-.73c-.56.17-1.11.39-1.68.52a8.44,8.44,0,0,1-2.51.12c-.48,0-.48.72,0,.75Z" transform="translate(0 -31.61)"/><path class="cls-31" d="M313.6,242.46a30.07,30.07,0,0,0,3.42.06,13.44,13.44,0,0,0,5.51-1.07c.43-.22.05-.86-.38-.65a12.79,12.79,0,0,1-5.34,1,26.5,26.5,0,0,1-3.21-.06c-.48,0-.48.72,0,.75Z" transform="translate(0 -31.61)"/><path class="cls-31" d="M314.07,240.53a30,30,0,0,0,3.42.05,13.5,13.5,0,0,0,5.51-1.07c.43-.21.05-.86-.38-.65a13,13,0,0,1-5.34,1,31.26,31.26,0,0,1-3.21-.06c-.48,0-.48.71,0,.75Z" transform="translate(0 -31.61)"/></g></svg>