<?xml version="1.0" encoding="utf-8"?>
<!-- Generator: Adobe Illustrator 27.0.0, SVG Export Plug-In . SVG Version: 6.00 Build 0)  -->
<svg version="1.1" id="Layer_1" xmlns="http://www.w3.org/2000/svg" xmlns:xlink="http://www.w3.org/1999/xlink" x="0px" y="0px"
	 viewBox="0 0 219.86 221.43" style="enable-background:new 0 0 219.86 221.43;" xml:space="preserve">
<style type="text/css">
	.st0{fill:#BFBAD0;}
	.st1{fill:url(#SVGID_1_);}
	.st2{fill:url(#SVGID_00000105407773911811058390000001547554312388269496_);}
	.st3{fill:url(#SVGID_00000066482577970459738040000014934740625764831139_);}
	.st4{fill:url(#SVGID_00000147195465303936235240000017354600796510916500_);}
	.st5{fill:url(#SVGID_00000144330345620749488450000015728699954331980973_);}
	.st6{fill:url(#SVGID_00000116193940184677410470000007000682272457783178_);}
	.st7{fill:url(#SVGID_00000083768494699437213740000015691628743227099837_);}
	.st8{fill:url(#SVGID_00000023253275734019054430000012685022974782936960_);}
	.st9{fill:url(#SVGID_00000134961123986079514620000007913038595483297718_);}
	.st10{fill:url(#SVGID_00000028302496083058372490000012757149388139122091_);}
	.st11{fill:url(#SVGID_00000003810109581309322860000012668462834284720779_);}
	.st12{fill:url(#SVGID_00000104682561809537769310000018072870839924251287_);}
	.st13{fill:url(#SVGID_00000106834760857558123810000013202378419388426381_);}
	.st14{fill:url(#SVGID_00000034060384366612667580000005706169672895149746_);}
	.st15{fill:url(#SVGID_00000154402666203508891740000005833641432296437155_);}
	.st16{fill:url(#SVGID_00000005224864820950445080000009628461622479021755_);}
	.st17{fill:url(#SVGID_00000093898731046263964570000016167478666736827274_);}
	.st18{fill:url(#SVGID_00000057849012857250466690000002106285002089096066_);}
	.st19{fill:url(#SVGID_00000099627391224229811720000001274644175135131578_);}
	.st20{fill:url(#SVGID_00000031926783809655032490000013869848607726588036_);}
	.st21{fill:url(#SVGID_00000019669810477584604830000012201490550913043893_);}
	.st22{fill:url(#SVGID_00000054964218427822926550000005201676815473365418_);}
</style>
<g id="OBJECTS">
	<g>
		<g>
			<path class="st0" d="M36.24,29.95c0,4.79-3.89,8.68-8.69,8.68c-4.79,0-8.68-3.89-8.68-8.68s3.89-8.69,8.68-8.69
				C32.36,21.28,36.24,25.16,36.24,29.95z"/>
			<path class="st0" d="M77.63,29.95c0,4.79-3.89,8.68-8.69,8.68c-4.79,0-8.68-3.89-8.68-8.68s3.89-8.69,8.68-8.69
				C73.74,21.28,77.63,25.16,77.63,29.95z"/>
			<path class="st0" d="M160.4,29.95c0,4.79-3.89,8.68-8.69,8.68c-4.79,0-8.69-3.89-8.69-8.68s3.89-8.69,8.69-8.69
				C156.52,21.28,160.4,25.16,160.4,29.95z"/>
			<path class="st0" d="M201.79,29.95c0,4.79-3.89,8.68-8.68,8.68c-4.79,0-8.69-3.89-8.69-8.68s3.89-8.69,8.69-8.69
				C197.91,21.28,201.79,25.16,201.79,29.95z"/>
			<path class="st0" d="M36.24,71.67c0,4.79-3.89,8.68-8.69,8.68c-4.79,0-8.68-3.89-8.68-8.68s3.89-8.69,8.68-8.69
				C32.36,62.99,36.24,66.88,36.24,71.67z"/>
			<path class="st0" d="M77.63,71.67c0,4.79-3.89,8.68-8.69,8.68c-4.79,0-8.68-3.89-8.68-8.68s3.89-8.69,8.68-8.69
				C73.74,62.99,77.63,66.88,77.63,71.67z"/>
			<path class="st0" d="M201.79,71.67c0,4.79-3.89,8.68-8.68,8.68c-4.79,0-8.69-3.89-8.69-8.68s3.89-8.69,8.69-8.69
				C197.91,62.99,201.79,66.88,201.79,71.67z"/>
			<path class="st0" d="M36.24,113.4c0,4.79-3.89,8.68-8.69,8.68c-4.79,0-8.68-3.89-8.68-8.68s3.89-8.68,8.68-8.68
				C32.36,104.71,36.24,108.59,36.24,113.4z"/>
		</g>
		<g>
			
				<linearGradient id="SVGID_1_" gradientUnits="userSpaceOnUse" x1="1541.6426" y1="-403.9608" x2="1677.6897" y2="-225.0768" gradientTransform="matrix(0 -1 1 0 424.4591 1722.9811)">
				<stop  offset="0" style="stop-color:#43B7E9"/>
				<stop  offset="1" style="stop-color:#223F93"/>
			</linearGradient>
			<rect x="25.18" y="155.11" class="st1" width="4.76" height="41.72"/>
			
				<linearGradient id="SVGID_00000157284605755384153920000013647133040992700566_" gradientUnits="userSpaceOnUse" x1="1534.9149" y1="-398.8482" x2="1670.9568" y2="-219.9712" gradientTransform="matrix(0 -1 1 0 424.4591 1722.9811)">
				<stop  offset="0" style="stop-color:#43B7E9"/>
				<stop  offset="1" style="stop-color:#223F93"/>
			</linearGradient>
			
				<rect x="66.56" y="113.4" style="fill:url(#SVGID_00000157284605755384153920000013647133040992700566_);" width="4.76" height="83.43"/>
			
				<linearGradient id="SVGID_00000086654566956674954620000007361675281091518909_" gradientUnits="userSpaceOnUse" x1="1541.4106" y1="-403.7866" x2="1677.4473" y2="-224.9166" gradientTransform="matrix(0 -1 1 0 424.4591 1722.9811)">
				<stop  offset="0" style="stop-color:#43B7E9"/>
				<stop  offset="1" style="stop-color:#223F93"/>
			</linearGradient>
			
				<rect x="107.95" y="29.95" style="fill:url(#SVGID_00000086654566956674954620000007361675281091518909_);" width="4.76" height="166.87"/>
			
				<linearGradient id="SVGID_00000033341478416050280740000011933815789918536084_" gradientUnits="userSpaceOnUse" x1="1508.2533" y1="-378.566" x2="1644.2871" y2="-199.6997" gradientTransform="matrix(0 -1 1 0 424.4591 1722.9811)">
				<stop  offset="0" style="stop-color:#43B7E9"/>
				<stop  offset="1" style="stop-color:#223F93"/>
			</linearGradient>
			
				<rect x="149.34" y="71.67" style="fill:url(#SVGID_00000033341478416050280740000011933815789918536084_);" width="4.76" height="125.15"/>
			
				<linearGradient id="SVGID_00000031893871418749275500000016390895970050469510_" gradientUnits="userSpaceOnUse" x1="1475.0844" y1="-353.3424" x2="1611.121" y2="-174.4725" gradientTransform="matrix(0 -1 1 0 424.4591 1722.9811)">
				<stop  offset="0" style="stop-color:#43B7E9"/>
				<stop  offset="1" style="stop-color:#223F93"/>
			</linearGradient>
			
				<rect x="190.74" y="113.4" style="fill:url(#SVGID_00000031893871418749275500000016390895970050469510_);" width="4.75" height="83.43"/>
		</g>
		<g>
			
				<linearGradient id="SVGID_00000005264508698459298140000018313122466857216959_" gradientUnits="userSpaceOnUse" x1="1567.8322" y1="-423.8908" x2="1703.8777" y2="-245.0091" gradientTransform="matrix(0 -1 1 0 424.4591 1722.9811)">
				<stop  offset="0" style="stop-color:#43B7E9"/>
				<stop  offset="1" style="stop-color:#223F93"/>
			</linearGradient>
			<path style="fill:url(#SVGID_00000005264508698459298140000018313122466857216959_);" d="M101.65,71.67
				c0,4.79,3.89,8.68,8.69,8.68c4.79,0,8.68-3.89,8.68-8.68s-3.89-8.69-8.68-8.69C105.54,62.99,101.65,66.88,101.65,71.67z"/>
			
				<linearGradient id="SVGID_00000158726775859161840970000015906754919046989451_" gradientUnits="userSpaceOnUse" x1="1561.3488" y1="-418.9458" x2="1697.3828" y2="-240.0793" gradientTransform="matrix(0 -1 1 0 424.4591 1722.9811)">
				<stop  offset="0" style="stop-color:#43B7E9"/>
				<stop  offset="1" style="stop-color:#223F93"/>
			</linearGradient>
			<path style="fill:url(#SVGID_00000158726775859161840970000015906754919046989451_);" d="M60.26,113.4
				c0,4.79,3.89,8.68,8.68,8.68c4.79,0,8.69-3.89,8.69-8.68s-3.89-8.68-8.69-8.68C64.15,104.71,60.26,108.59,60.26,113.4z"/>
			
				<linearGradient id="SVGID_00000008145760197222286760000018280216860463421370_" gradientUnits="userSpaceOnUse" x1="1541.401" y1="-403.7803" x2="1677.4396" y2="-224.9077" gradientTransform="matrix(0 -1 1 0 424.4591 1722.9811)">
				<stop  offset="0" style="stop-color:#43B7E9"/>
				<stop  offset="1" style="stop-color:#223F93"/>
			</linearGradient>
			<path style="fill:url(#SVGID_00000008145760197222286760000018280216860463421370_);" d="M101.65,113.4
				c0,4.79,3.89,8.68,8.69,8.68c4.79,0,8.68-3.89,8.68-8.68s-3.89-8.68-8.68-8.68C105.54,104.71,101.65,108.59,101.65,113.4z"/>
			
				<linearGradient id="SVGID_00000144298099420051554520000005989007565965268365_" gradientUnits="userSpaceOnUse" x1="1501.519" y1="-373.45" x2="1637.5576" y2="-194.5772" gradientTransform="matrix(0 -1 1 0 424.4591 1722.9811)">
				<stop  offset="0" style="stop-color:#43B7E9"/>
				<stop  offset="1" style="stop-color:#223F93"/>
			</linearGradient>
			<path style="fill:url(#SVGID_00000144298099420051554520000005989007565965268365_);" d="M184.42,113.4
				c0,4.79,3.89,8.68,8.69,8.68c4.79,0,8.68-3.89,8.68-8.68s-3.89-8.68-8.68-8.68C188.31,104.71,184.42,108.59,184.42,113.4z"/>
			
				<linearGradient id="SVGID_00000034074111508472043180000006290297929033007259_" gradientUnits="userSpaceOnUse" x1="1554.8588" y1="-414.0102" x2="1690.8927" y2="-235.1438" gradientTransform="matrix(0 -1 1 0 424.4591 1722.9811)">
				<stop  offset="0" style="stop-color:#43B7E9"/>
				<stop  offset="1" style="stop-color:#223F93"/>
			</linearGradient>
			<path style="fill:url(#SVGID_00000034074111508472043180000006290297929033007259_);" d="M18.88,155.11
				c0,4.79,3.89,8.69,8.68,8.69s8.69-3.89,8.69-8.69c0-4.79-3.89-8.68-8.69-8.68C22.76,146.42,18.88,150.31,18.88,155.11z"/>
			
				<linearGradient id="SVGID_00000172412822710081096660000014920524357675940264_" gradientUnits="userSpaceOnUse" x1="1534.921" y1="-398.8436" x2="1670.9503" y2="-219.9833" gradientTransform="matrix(0 -1 1 0 424.4591 1722.9811)">
				<stop  offset="0" style="stop-color:#43B7E9"/>
				<stop  offset="1" style="stop-color:#223F93"/>
			</linearGradient>
			<path style="fill:url(#SVGID_00000172412822710081096660000014920524357675940264_);" d="M60.26,155.11
				c0,4.79,3.89,8.69,8.68,8.69c4.79,0,8.69-3.89,8.69-8.69c0-4.79-3.89-8.68-8.69-8.68C64.15,146.42,60.26,150.31,60.26,155.11z"/>
			
				<linearGradient id="SVGID_00000090294680147231696150000008151013177841184130_" gradientUnits="userSpaceOnUse" x1="1514.9744" y1="-383.6765" x2="1651.0083" y2="-204.8101" gradientTransform="matrix(0 -1 1 0 424.4591 1722.9811)">
				<stop  offset="0" style="stop-color:#43B7E9"/>
				<stop  offset="1" style="stop-color:#223F93"/>
			</linearGradient>
			<path style="fill:url(#SVGID_00000090294680147231696150000008151013177841184130_);" d="M101.65,155.11
				c0,4.79,3.89,8.69,8.69,8.69c4.79,0,8.68-3.89,8.68-8.69c0-4.79-3.89-8.68-8.68-8.68C105.54,146.42,101.65,150.31,101.65,155.11z
				"/>
			
				<linearGradient id="SVGID_00000016074835930664418700000013591911536824041136_" gradientUnits="userSpaceOnUse" x1="1495.0256" y1="-368.5169" x2="1631.0697" y2="-189.637" gradientTransform="matrix(0 -1 1 0 424.4591 1722.9811)">
				<stop  offset="0" style="stop-color:#43B7E9"/>
				<stop  offset="1" style="stop-color:#223F93"/>
			</linearGradient>
			<path style="fill:url(#SVGID_00000016074835930664418700000013591911536824041136_);" d="M143.04,155.11
				c0,4.79,3.89,8.69,8.69,8.69c4.79,0,8.69-3.89,8.69-8.69c0-4.79-3.89-8.68-8.69-8.68C146.92,146.42,143.04,150.31,143.04,155.11z
				"/>
			
				<linearGradient id="SVGID_00000073714954706316184610000007055510457864307893_" gradientUnits="userSpaceOnUse" x1="1475.0928" y1="-353.3454" x2="1611.1268" y2="-174.479" gradientTransform="matrix(0 -1 1 0 424.4591 1722.9811)">
				<stop  offset="0" style="stop-color:#43B7E9"/>
				<stop  offset="1" style="stop-color:#223F93"/>
			</linearGradient>
			<path style="fill:url(#SVGID_00000073714954706316184610000007055510457864307893_);" d="M184.42,155.11
				c0,4.79,3.89,8.69,8.69,8.69c4.79,0,8.68-3.89,8.68-8.69c0-4.79-3.89-8.68-8.68-8.68C188.31,146.42,184.42,150.31,184.42,155.11z
				"/>
			
				<linearGradient id="SVGID_00000084500183034912561490000015689389824261829008_" gradientUnits="userSpaceOnUse" x1="1528.4282" y1="-393.9107" x2="1664.4525" y2="-215.0571" gradientTransform="matrix(0 -1 1 0 424.4591 1722.9811)">
				<stop  offset="0" style="stop-color:#43B7E9"/>
				<stop  offset="1" style="stop-color:#223F93"/>
			</linearGradient>
			<path style="fill:url(#SVGID_00000084500183034912561490000015689389824261829008_);" d="M18.88,196.83
				c0,4.79,3.89,8.68,8.68,8.68s8.69-3.89,8.69-8.68s-3.89-8.68-8.69-8.68C22.76,188.14,18.88,192.04,18.88,196.83z"/>
			
				<linearGradient id="SVGID_00000057867099734449609960000016006955394411777685_" gradientUnits="userSpaceOnUse" x1="1508.4906" y1="-378.744" x2="1644.5197" y2="-199.884" gradientTransform="matrix(0 -1 1 0 424.4591 1722.9811)">
				<stop  offset="0" style="stop-color:#43B7E9"/>
				<stop  offset="1" style="stop-color:#223F93"/>
			</linearGradient>
			<path style="fill:url(#SVGID_00000057867099734449609960000016006955394411777685_);" d="M60.26,196.83
				c0,4.79,3.89,8.68,8.68,8.68c4.79,0,8.69-3.89,8.69-8.68s-3.89-8.68-8.69-8.68C64.15,188.14,60.26,192.04,60.26,196.83z"/>
			
				<linearGradient id="SVGID_00000110445311330209592960000005435105909534831797_" gradientUnits="userSpaceOnUse" x1="1488.5446" y1="-363.5762" x2="1624.578" y2="-184.71" gradientTransform="matrix(0 -1 1 0 424.4591 1722.9811)">
				<stop  offset="0" style="stop-color:#43B7E9"/>
				<stop  offset="1" style="stop-color:#223F93"/>
			</linearGradient>
			<path style="fill:url(#SVGID_00000110445311330209592960000005435105909534831797_);" d="M101.65,196.83
				c0,4.79,3.89,8.68,8.69,8.68c4.79,0,8.68-3.89,8.68-8.68s-3.89-8.68-8.68-8.68C105.54,188.14,101.65,192.04,101.65,196.83z"/>
			
				<linearGradient id="SVGID_00000086682737389835882930000003649782000633772163_" gradientUnits="userSpaceOnUse" x1="1468.6012" y1="-348.4094" x2="1604.6355" y2="-169.5423" gradientTransform="matrix(0 -1 1 0 424.4591 1722.9811)">
				<stop  offset="0" style="stop-color:#43B7E9"/>
				<stop  offset="1" style="stop-color:#223F93"/>
			</linearGradient>
			<path style="fill:url(#SVGID_00000086682737389835882930000003649782000633772163_);" d="M143.04,196.83
				c0,4.79,3.89,8.68,8.69,8.68c4.79,0,8.69-3.89,8.69-8.68s-3.89-8.68-8.69-8.68C146.92,188.14,143.04,192.04,143.04,196.83z"/>
			
				<linearGradient id="SVGID_00000045606013263366325740000009419836946412923569_" gradientUnits="userSpaceOnUse" x1="1448.6687" y1="-333.2375" x2="1584.6929" y2="-154.384" gradientTransform="matrix(0 -1 1 0 424.4591 1722.9811)">
				<stop  offset="0" style="stop-color:#43B7E9"/>
				<stop  offset="1" style="stop-color:#223F93"/>
			</linearGradient>
			<path style="fill:url(#SVGID_00000045606013263366325740000009419836946412923569_);" d="M184.42,196.83
				c0,4.79,3.89,8.68,8.69,8.68c4.79,0,8.68-3.89,8.68-8.68s-3.89-8.68-8.68-8.68C188.31,188.14,184.42,192.04,184.42,196.83z"/>
			
				<linearGradient id="SVGID_00000172417202196649217520000015245646693791675014_" gradientUnits="userSpaceOnUse" x1="1594.2715" y1="-443.9802" x2="1730.3026" y2="-265.1172" gradientTransform="matrix(0 -1 1 0 424.4591 1722.9811)">
				<stop  offset="0" style="stop-color:#43B7E9"/>
				<stop  offset="1" style="stop-color:#223F93"/>
			</linearGradient>
			<path style="fill:url(#SVGID_00000172417202196649217520000015245646693791675014_);" d="M101.65,29.95
				c0,4.79,3.89,8.68,8.69,8.68c4.79,0,8.68-3.89,8.68-8.68s-3.89-8.69-8.68-8.69C105.54,21.28,101.65,25.16,101.65,29.95z"/>
			
				<linearGradient id="SVGID_00000046332084275064769730000015138668888192893345_" gradientUnits="userSpaceOnUse" x1="1547.8865" y1="-408.727" x2="1683.933" y2="-229.8439" gradientTransform="matrix(0 -1 1 0 424.4591 1722.9811)">
				<stop  offset="0" style="stop-color:#43B7E9"/>
				<stop  offset="1" style="stop-color:#223F93"/>
			</linearGradient>
			<path style="fill:url(#SVGID_00000046332084275064769730000015138668888192893345_);" d="M143.04,71.67
				c0,4.79,3.89,8.68,8.69,8.68c4.79,0,8.69-3.89,8.69-8.68s-3.89-8.69-8.69-8.69C146.92,62.99,143.04,66.88,143.04,71.67z"/>
			
				<linearGradient id="SVGID_00000026873412363331761360000017986514352550899377_" gradientUnits="userSpaceOnUse" x1="1521.451" y1="-388.6222" x2="1657.5" y2="-209.7359" gradientTransform="matrix(0 -1 1 0 424.4591 1722.9811)">
				<stop  offset="0" style="stop-color:#43B7E9"/>
				<stop  offset="1" style="stop-color:#223F93"/>
			</linearGradient>
			<path style="fill:url(#SVGID_00000026873412363331761360000017986514352550899377_);" d="M143.04,113.4
				c0,4.79,3.89,8.68,8.69,8.68c4.79,0,8.69-3.89,8.69-8.68s-3.89-8.68-8.69-8.68C146.92,104.71,143.04,108.59,143.04,113.4z"/>
		</g>
	</g>
</g>
</svg>
