<?xml version="1.0" encoding="utf-8"?>
<!-- Generator: Adobe Illustrator 27.0.0, SVG Export Plug-In . SVG Version: 6.00 Build 0)  -->
<svg version="1.1" id="Layer_1" xmlns="http://www.w3.org/2000/svg" xmlns:xlink="http://www.w3.org/1999/xlink" x="0px" y="0px"
	 viewBox="0 0 373.52 340.64" style="enable-background:new 0 0 373.52 340.64;" xml:space="preserve">
<style type="text/css">
	.st0{fill:#BFBACF;}
	.st1{fill:url(#SVGID_1_);}
	.st2{fill:url(#SVGID_00000166669770455166009300000006194484855512837516_);}
	.st3{fill:url(#SVGID_00000063607048435920393930000006856891221478176393_);}
	.st4{fill:url(#SVGID_00000093894411640273683490000010026317839396398997_);}
	.st5{fill:url(#SVGID_00000088825070956496109780000012166059434250815114_);}
	.st6{fill:url(#SVGID_00000119116896756734845900000002501689402978865830_);}
	.st7{fill:url(#SVGID_00000022550101769068193440000002032062464301716633_);}
	.st8{fill:url(#SVGID_00000090266844782270095160000013515693992893110666_);}
	.st9{fill:url(#SVGID_00000168809524766021347610000003163156280508596876_);}
	.st10{fill:url(#SVGID_00000085946546543637476780000010707157583282118822_);}
	.st11{fill:url(#SVGID_00000016073317352412772910000015026193772376319381_);}
	.st12{fill:url(#SVGID_00000137839434327695157150000005674698926368002226_);}
	.st13{fill:url(#SVGID_00000114777388741585639890000007446522014653598597_);}
	.st14{fill:url(#SVGID_00000013174481987676047050000000170689088608563375_);}
	.st15{fill:url(#SVGID_00000070825323297679960170000013675435362494601613_);}
	.st16{fill:url(#SVGID_00000168077380259381056120000004024184513286988174_);}
	.st17{fill:url(#SVGID_00000129917138092757264600000006577795107873595320_);}
	.st18{fill:url(#SVGID_00000098218413971709028000000007366504785836414849_);}
	.st19{fill:url(#SVGID_00000036972955731946699940000003310159117977125797_);}
	.st20{fill:url(#SVGID_00000152265853960828335020000001079701475948432543_);}
	.st21{fill:url(#SVGID_00000116942429742312768500000017647259030211404679_);}
	.st22{fill:url(#SVGID_00000118367866805310930370000013253052013364543912_);}
	.st23{fill:#464666;}
	.st24{font-family:'TeluguMN';}
	.st25{font-size:66.3888px;}
</style>
<g id="BACKGROUND">
</g>
<g id="OBJECTS">
	<g>
		<g>
			<path class="st0" d="M116.15,34.89c0,4.79-3.89,8.68-8.69,8.68c-4.79,0-8.68-3.89-8.68-8.68s3.89-8.69,8.68-8.69
				C112.27,26.22,116.15,30.1,116.15,34.89z"/>
			<path class="st0" d="M157.54,34.89c0,4.79-3.89,8.68-8.69,8.68c-4.79,0-8.68-3.89-8.68-8.68s3.89-8.69,8.68-8.69
				C153.65,26.22,157.54,30.1,157.54,34.89z"/>
			<path class="st0" d="M240.31,34.89c0,4.79-3.89,8.68-8.69,8.68c-4.79,0-8.69-3.89-8.69-8.68s3.89-8.69,8.69-8.69
				C236.43,26.22,240.31,30.1,240.31,34.89z"/>
			<path class="st0" d="M281.7,34.89c0,4.79-3.89,8.68-8.68,8.68c-4.79,0-8.69-3.89-8.69-8.68s3.89-8.69,8.69-8.69
				C277.82,26.22,281.7,30.1,281.7,34.89z"/>
			<path class="st0" d="M116.15,76.61c0,4.79-3.89,8.68-8.69,8.68c-4.79,0-8.68-3.89-8.68-8.68s3.89-8.69,8.68-8.69
				C112.27,67.93,116.15,71.82,116.15,76.61z"/>
			<path class="st0" d="M157.54,76.61c0,4.79-3.89,8.68-8.69,8.68c-4.79,0-8.68-3.89-8.68-8.68s3.89-8.69,8.68-8.69
				C153.65,67.93,157.54,71.82,157.54,76.61z"/>
			<path class="st0" d="M281.7,76.61c0,4.79-3.89,8.68-8.68,8.68c-4.79,0-8.69-3.89-8.69-8.68s3.89-8.69,8.69-8.69
				C277.82,67.93,281.7,71.82,281.7,76.61z"/>
			<path class="st0" d="M116.15,118.34c0,4.79-3.89,8.68-8.69,8.68c-4.79,0-8.68-3.89-8.68-8.68c0-4.79,3.89-8.68,8.68-8.68
				C112.27,109.65,116.15,113.53,116.15,118.34z"/>
		</g>
		<g>
			
				<linearGradient id="SVGID_1_" gradientUnits="userSpaceOnUse" x1="1534.7008" y1="1116.0497" x2="1670.7479" y2="937.1658" gradientTransform="matrix(0 -1 -1 0 1216.4591 1720.9811)">
				<stop  offset="0" style="stop-color:#00BBFF"/>
				<stop  offset="1" style="stop-color:#00349C"/>
			</linearGradient>
			<rect x="105.09" y="160.05" class="st1" width="4.76" height="41.72"/>
			
				<linearGradient id="SVGID_00000124122869358056548070000012670827964671901339_" gradientUnits="userSpaceOnUse" x1="1527.9714" y1="1110.9358" x2="1664.0133" y2="932.0588" gradientTransform="matrix(0 -1 -1 0 1216.4591 1720.9811)">
				<stop  offset="0" style="stop-color:#00BBFF"/>
				<stop  offset="1" style="stop-color:#00349C"/>
			</linearGradient>
			
				<rect x="146.47" y="118.34" style="fill:url(#SVGID_00000124122869358056548070000012670827964671901339_);" width="4.76" height="83.43"/>
			
				<linearGradient id="SVGID_00000051352572048563069620000010090575812344498874_" gradientUnits="userSpaceOnUse" x1="1534.4634" y1="1115.8713" x2="1670.5" y2="937.0013" gradientTransform="matrix(0 -1 -1 0 1216.4591 1720.9811)">
				<stop  offset="0" style="stop-color:#00BBFF"/>
				<stop  offset="1" style="stop-color:#00349C"/>
			</linearGradient>
			
				<rect x="187.86" y="34.89" style="fill:url(#SVGID_00000051352572048563069620000010090575812344498874_);" width="4.76" height="166.87"/>
			
				<linearGradient id="SVGID_00000060740774773502297300000009192090942839228828_" gradientUnits="userSpaceOnUse" x1="1501.3132" y1="1090.6562" x2="1637.347" y2="911.7899" gradientTransform="matrix(0 -1 -1 0 1216.4591 1720.9811)">
				<stop  offset="0" style="stop-color:#00BBFF"/>
				<stop  offset="1" style="stop-color:#00349C"/>
			</linearGradient>
			
				<rect x="229.25" y="76.61" style="fill:url(#SVGID_00000060740774773502297300000009192090942839228828_);" width="4.76" height="125.15"/>
			
				<linearGradient id="SVGID_00000132776963818872864730000009362666581417454513_" gradientUnits="userSpaceOnUse" x1="1468.1447" y1="1065.4329" x2="1604.1813" y2="886.5629" gradientTransform="matrix(0 -1 -1 0 1216.4591 1720.9811)">
				<stop  offset="0" style="stop-color:#00BBFF"/>
				<stop  offset="1" style="stop-color:#00349C"/>
			</linearGradient>
			
				<rect x="270.65" y="118.34" style="fill:url(#SVGID_00000132776963818872864730000009362666581417454513_);" width="4.75" height="83.43"/>
		</g>
		<g>
			
				<linearGradient id="SVGID_00000154390549597114828730000001098732832584853895_" gradientUnits="userSpaceOnUse" x1="1560.8915" y1="1135.9806" x2="1696.937" y2="957.0988" gradientTransform="matrix(0 -1 -1 0 1216.4591 1720.9811)">
				<stop  offset="0" style="stop-color:#00BBFF"/>
				<stop  offset="1" style="stop-color:#00349C"/>
			</linearGradient>
			<path style="fill:url(#SVGID_00000154390549597114828730000001098732832584853895_);" d="M181.56,76.61
				c0,4.79,3.89,8.68,8.69,8.68c4.79,0,8.68-3.89,8.68-8.68s-3.89-8.69-8.68-8.69C185.45,67.93,181.56,71.82,181.56,76.61z"/>
			
				<linearGradient id="SVGID_00000090973037560980884520000000835136340339363771_" gradientUnits="userSpaceOnUse" x1="1554.408" y1="1131.0354" x2="1690.442" y2="952.1689" gradientTransform="matrix(0 -1 -1 0 1216.4591 1720.9811)">
				<stop  offset="0" style="stop-color:#00BBFF"/>
				<stop  offset="1" style="stop-color:#00349C"/>
			</linearGradient>
			<path style="fill:url(#SVGID_00000090973037560980884520000000835136340339363771_);" d="M140.17,118.34
				c0,4.79,3.89,8.68,8.68,8.68c4.79,0,8.69-3.89,8.69-8.68c0-4.79-3.89-8.68-8.69-8.68C144.06,109.65,140.17,113.53,140.17,118.34z
				"/>
			
				<linearGradient id="SVGID_00000131348061917971381160000011756054255237995964_" gradientUnits="userSpaceOnUse" x1="1534.4611" y1="1115.8706" x2="1670.4996" y2="936.998" gradientTransform="matrix(0 -1 -1 0 1216.4591 1720.9811)">
				<stop  offset="0" style="stop-color:#00BBFF"/>
				<stop  offset="1" style="stop-color:#00349C"/>
			</linearGradient>
			<path style="fill:url(#SVGID_00000131348061917971381160000011756054255237995964_);" d="M181.56,118.34
				c0,4.79,3.89,8.68,8.69,8.68c4.79,0,8.68-3.89,8.68-8.68c0-4.79-3.89-8.68-8.68-8.68C185.45,109.65,181.56,113.53,181.56,118.34z
				"/>
			
				<linearGradient id="SVGID_00000157294805253591328000000013559550352173601471_" gradientUnits="userSpaceOnUse" x1="1494.5773" y1="1085.5389" x2="1630.6158" y2="906.6661" gradientTransform="matrix(0 -1 -1 0 1216.4591 1720.9811)">
				<stop  offset="0" style="stop-color:#00BBFF"/>
				<stop  offset="1" style="stop-color:#00349C"/>
			</linearGradient>
			<path style="fill:url(#SVGID_00000157294805253591328000000013559550352173601471_);" d="M264.33,118.34
				c0,4.79,3.89,8.68,8.69,8.68c4.79,0,8.68-3.89,8.68-8.68c0-4.79-3.89-8.68-8.68-8.68C268.22,109.65,264.33,113.53,264.33,118.34z
				"/>
			
				<linearGradient id="SVGID_00000093157452457033831480000002847009143098858662_" gradientUnits="userSpaceOnUse" x1="1547.9171" y1="1126.0991" x2="1683.951" y2="947.2327" gradientTransform="matrix(0 -1 -1 0 1216.4591 1720.9811)">
				<stop  offset="0" style="stop-color:#00BBFF"/>
				<stop  offset="1" style="stop-color:#00349C"/>
			</linearGradient>
			<path style="fill:url(#SVGID_00000093157452457033831480000002847009143098858662_);" d="M98.79,160.05
				c0,4.79,3.89,8.69,8.68,8.69s8.69-3.89,8.69-8.69c0-4.79-3.89-8.68-8.69-8.68C102.67,151.36,98.79,155.25,98.79,160.05z"/>
			
				<linearGradient id="SVGID_00000090264753941181624880000006741569517649239969_" gradientUnits="userSpaceOnUse" x1="1527.9771" y1="1110.9308" x2="1664.0063" y2="932.0705" gradientTransform="matrix(0 -1 -1 0 1216.4591 1720.9811)">
				<stop  offset="0" style="stop-color:#00BBFF"/>
				<stop  offset="1" style="stop-color:#00349C"/>
			</linearGradient>
			<path style="fill:url(#SVGID_00000090264753941181624880000006741569517649239969_);" d="M140.17,160.05
				c0,4.79,3.89,8.69,8.68,8.69c4.79,0,8.69-3.89,8.69-8.69c0-4.79-3.89-8.68-8.69-8.68C144.06,151.36,140.17,155.25,140.17,160.05z
				"/>
			
				<linearGradient id="SVGID_00000060026642340228821500000003947783476425455524_" gradientUnits="userSpaceOnUse" x1="1508.0314" y1="1095.7644" x2="1644.0653" y2="916.898" gradientTransform="matrix(0 -1 -1 0 1216.4591 1720.9811)">
				<stop  offset="0" style="stop-color:#00BBFF"/>
				<stop  offset="1" style="stop-color:#00349C"/>
			</linearGradient>
			<path style="fill:url(#SVGID_00000060026642340228821500000003947783476425455524_);" d="M181.56,160.05
				c0,4.79,3.89,8.69,8.69,8.69c4.79,0,8.68-3.89,8.68-8.69c0-4.79-3.89-8.68-8.68-8.68C185.45,151.36,181.56,155.25,181.56,160.05z
				"/>
			
				<linearGradient id="SVGID_00000013179578266010080980000008764415246221631634_" gradientUnits="userSpaceOnUse" x1="1488.0828" y1="1080.605" x2="1624.1268" y2="901.7251" gradientTransform="matrix(0 -1 -1 0 1216.4591 1720.9811)">
				<stop  offset="0" style="stop-color:#00BBFF"/>
				<stop  offset="1" style="stop-color:#00349C"/>
			</linearGradient>
			<path style="fill:url(#SVGID_00000013179578266010080980000008764415246221631634_);" d="M222.95,160.05
				c0,4.79,3.89,8.69,8.69,8.69c4.79,0,8.69-3.89,8.69-8.69c0-4.79-3.89-8.68-8.69-8.68C226.83,151.36,222.95,155.25,222.95,160.05z
				"/>
			
				<linearGradient id="SVGID_00000098209507311546241050000000629611635951661229_" gradientUnits="userSpaceOnUse" x1="1468.1479" y1="1065.432" x2="1604.182" y2="886.5656" gradientTransform="matrix(0 -1 -1 0 1216.4591 1720.9811)">
				<stop  offset="0" style="stop-color:#00BBFF"/>
				<stop  offset="1" style="stop-color:#00349C"/>
			</linearGradient>
			<path style="fill:url(#SVGID_00000098209507311546241050000000629611635951661229_);" d="M264.33,160.05
				c0,4.79,3.89,8.69,8.69,8.69c4.79,0,8.68-3.89,8.68-8.69c0-4.79-3.89-8.68-8.68-8.68C268.22,151.36,264.33,155.25,264.33,160.05z
				"/>
			
				<linearGradient id="SVGID_00000109730285017765599150000003601929226370138250_" gradientUnits="userSpaceOnUse" x1="1521.4904" y1="1106.0026" x2="1657.5146" y2="927.1489" gradientTransform="matrix(0 -1 -1 0 1216.4591 1720.9811)">
				<stop  offset="0" style="stop-color:#00BBFF"/>
				<stop  offset="1" style="stop-color:#00349C"/>
			</linearGradient>
			<path style="fill:url(#SVGID_00000109730285017765599150000003601929226370138250_);" d="M98.79,201.77
				c0,4.79,3.89,8.68,8.68,8.68s8.69-3.89,8.69-8.68s-3.89-8.68-8.69-8.68C102.67,193.08,98.79,196.98,98.79,201.77z"/>
			
				<linearGradient id="SVGID_00000073003165197561606730000016414554817011149231_" gradientUnits="userSpaceOnUse" x1="1501.5504" y1="1090.8341" x2="1637.5795" y2="911.9741" gradientTransform="matrix(0 -1 -1 0 1216.4591 1720.9811)">
				<stop  offset="0" style="stop-color:#00BBFF"/>
				<stop  offset="1" style="stop-color:#00349C"/>
			</linearGradient>
			<path style="fill:url(#SVGID_00000073003165197561606730000016414554817011149231_);" d="M140.17,201.77
				c0,4.79,3.89,8.68,8.68,8.68c4.79,0,8.69-3.89,8.69-8.68s-3.89-8.68-8.69-8.68C144.06,193.08,140.17,196.98,140.17,201.77z"/>
			
				<linearGradient id="SVGID_00000081637697017860599700000014145739875815399817_" gradientUnits="userSpaceOnUse" x1="1481.6053" y1="1075.667" x2="1617.6388" y2="896.8008" gradientTransform="matrix(0 -1 -1 0 1216.4591 1720.9811)">
				<stop  offset="0" style="stop-color:#00BBFF"/>
				<stop  offset="1" style="stop-color:#00349C"/>
			</linearGradient>
			<path style="fill:url(#SVGID_00000081637697017860599700000014145739875815399817_);" d="M181.56,201.77
				c0,4.79,3.89,8.68,8.69,8.68c4.79,0,8.68-3.89,8.68-8.68s-3.89-8.68-8.68-8.68C185.45,193.08,181.56,196.98,181.56,201.77z"/>
			
				<linearGradient id="SVGID_00000078722971923457278020000008540363328508644745_" gradientUnits="userSpaceOnUse" x1="1461.6621" y1="1060.5004" x2="1597.6964" y2="881.6333" gradientTransform="matrix(0 -1 -1 0 1216.4591 1720.9811)">
				<stop  offset="0" style="stop-color:#00BBFF"/>
				<stop  offset="1" style="stop-color:#00349C"/>
			</linearGradient>
			<path style="fill:url(#SVGID_00000078722971923457278020000008540363328508644745_);" d="M222.95,201.77
				c0,4.79,3.89,8.68,8.69,8.68c4.79,0,8.69-3.89,8.69-8.68s-3.89-8.68-8.69-8.68C226.83,193.08,222.95,196.98,222.95,201.77z"/>
			
				<linearGradient id="SVGID_00000120538233905101894970000010647964434934984838_" gradientUnits="userSpaceOnUse" x1="1441.7277" y1="1045.327" x2="1577.7518" y2="866.4735" gradientTransform="matrix(0 -1 -1 0 1216.4591 1720.9811)">
				<stop  offset="0" style="stop-color:#00BBFF"/>
				<stop  offset="1" style="stop-color:#00349C"/>
			</linearGradient>
			<path style="fill:url(#SVGID_00000120538233905101894970000010647964434934984838_);" d="M264.33,201.77
				c0,4.79,3.89,8.68,8.69,8.68c4.79,0,8.68-3.89,8.68-8.68s-3.89-8.68-8.68-8.68C268.22,193.08,264.33,196.98,264.33,201.77z"/>
			
				<linearGradient id="SVGID_00000166647931060502095830000006585631559386301848_" gradientUnits="userSpaceOnUse" x1="1587.329" y1="1156.0686" x2="1723.3601" y2="977.2056" gradientTransform="matrix(0 -1 -1 0 1216.4591 1720.9811)">
				<stop  offset="0" style="stop-color:#00BBFF"/>
				<stop  offset="1" style="stop-color:#00349C"/>
			</linearGradient>
			<path style="fill:url(#SVGID_00000166647931060502095830000006585631559386301848_);" d="M181.56,34.89
				c0,4.79,3.89,8.68,8.69,8.68c4.79,0,8.68-3.89,8.68-8.68s-3.89-8.69-8.68-8.69C185.45,26.22,181.56,30.1,181.56,34.89z"/>
			
				<linearGradient id="SVGID_00000128465015142172399910000008218738853943551374_" gradientUnits="userSpaceOnUse" x1="1540.946" y1="1120.8169" x2="1676.9926" y2="941.9338" gradientTransform="matrix(0 -1 -1 0 1216.4591 1720.9811)">
				<stop  offset="0" style="stop-color:#00BBFF"/>
				<stop  offset="1" style="stop-color:#00349C"/>
			</linearGradient>
			<path style="fill:url(#SVGID_00000128465015142172399910000008218738853943551374_);" d="M222.95,76.61
				c0,4.79,3.89,8.68,8.69,8.68c4.79,0,8.69-3.89,8.69-8.68s-3.89-8.69-8.69-8.69C226.83,67.93,222.95,71.82,222.95,76.61z"/>
			
				<linearGradient id="SVGID_00000116219408168879239250000004013785505111470241_" gradientUnits="userSpaceOnUse" x1="1514.5114" y1="1100.7126" x2="1650.5603" y2="921.8264" gradientTransform="matrix(0 -1 -1 0 1216.4591 1720.9811)">
				<stop  offset="0" style="stop-color:#00BBFF"/>
				<stop  offset="1" style="stop-color:#00349C"/>
			</linearGradient>
			<path style="fill:url(#SVGID_00000116219408168879239250000004013785505111470241_);" d="M222.95,118.34
				c0,4.79,3.89,8.68,8.69,8.68c4.79,0,8.69-3.89,8.69-8.68c0-4.79-3.89-8.68-8.69-8.68C226.83,109.65,222.95,113.53,222.95,118.34z
				"/>
		</g>
	</g>
	<g>
		<text transform="matrix(1 0 0 1 1.983643e-04 304.8121)" class="st23 st24 st25">Loan Bridge</text>
	</g>
</g>
</svg>
