<?xml version="1.0" encoding="utf-8"?>
<!-- Generator: Adobe Illustrator 27.0.0, SVG Export Plug-In . SVG Version: 6.00 Build 0)  -->
<svg version="1.1" xmlns="http://www.w3.org/2000/svg" xmlns:xlink="http://www.w3.org/1999/xlink" x="0px" y="0px"
	 viewBox="0 0 500 500" style="enable-background:new 0 0 500 500;" xml:space="preserve">
<style type="text/css">
	.st0{fill:#7DD0E6;}
	.st1{fill:#FCFCFC;stroke:#993636;stroke-width:5;stroke-miterlimit:10;}
	.st2{font-family:'Impact';}
	.st3{font-size:15.6554px;}
	.st4{font-size:36.8339px;}
	.st5{fill:#FCFCFC;stroke:#993636;stroke-width:5;stroke-linejoin:round;stroke-miterlimit:10;}
	.st6{fill:#FFFFFF;}
	.st7{fill:#008EA7;}
	.st8{fill:#413A64;}
	.st9{fill:#E6E7E8;}
	.st10{fill:#ABE0F9;}
	.st11{fill:#2595D3;}
	.st12{fill:#EF4D46;}
	.st13{fill:#BBBDBF;}
	.st14{fill:none;stroke:#24788B;stroke-width:0.5;stroke-linejoin:round;stroke-miterlimit:10;}
	.st15{clip-path:url(#SVGID_00000010295021202061339280000013526296490445203340_);fill:#413A64;}
	.st16{fill:#175C6C;}
	.st17{clip-path:url(#SVGID_00000049921393439919246340000014370466834676016028_);fill:#EF4D46;}
	.st18{clip-path:url(#SVGID_00000049921393439919246340000014370466834676016028_);fill:#E6E7E8;}
	.st19{clip-path:url(#SVGID_00000152964970730661277440000014959188867876656782_);fill:#413A64;}
	.st20{clip-path:url(#SVGID_00000117647435948131355920000005910936710211915196_);fill:#EF4D46;}
	.st21{clip-path:url(#SVGID_00000117647435948131355920000005910936710211915196_);fill:#E6E7E8;}
</style>
<g id="BACKGROUND">
</g>
<g id="OBJECTS">
	<path class="st0" d="M442.84,401.04H60.01c-5.89,0-10.71-4.82-10.71-10.71v0c0-5.89,4.82-10.71,10.71-10.71h382.83
		c5.89,0,10.71,4.82,10.71,10.71v0C453.55,396.22,448.73,401.04,442.84,401.04z"/>
	<g>
		<g>
			<path class="st1" d="M365.16,387.39H185.9c-8.38,0-15.24-6.86-15.24-15.24V251.3c0-8.38,6.86-15.24,15.24-15.24h179.26
				c8.38,0,15.24,6.86,15.24,15.24v120.84C380.4,380.53,373.55,387.39,365.16,387.39z"/>
			<rect x="180.05" y="248.64" class="st1" width="190.97" height="112.26"/>
			<path class="st1" d="M345.04,350.35H206.02c-9.06,0-16.41-7.35-16.41-16.41v-85.25h171.84v85.25
				C361.45,343.01,354.1,350.35,345.04,350.35z"/>
			<path class="st1" d="M384,394.56H167.07c-10.22,0-18.5-8.28-18.5-18.5v-2.6h253.92v2.6C402.49,386.28,394.21,394.56,384,394.56z"
				/>
			<path class="st1" d="M241.57,367.52c0,9.04,7.33,16.37,16.37,16.37h35.2c9.04,0,16.37-7.33,16.37-16.37H241.57z"/>
			<rect x="147.74" y="367.44" class="st1" width="255.57" height="6.03"/>
			<rect x="189.32" y="235.9" class="st1" width="172.43" height="12.77"/>
			<g>
				<path class="st1" d="M343.38,342.24H207.69c-6.6,0-12-5.4-12-12V219.85c0-6.6,5.4-12,12-12h135.69c6.6,0,12,5.4,12,12v110.38
					C355.38,336.84,349.98,342.24,343.38,342.24z"/>
				<path class="st1" d="M346.21,207.85H204.85c-5.04,0-9.16,4.12-9.16,9.16v15.83h159.69v-15.83
					C355.38,211.98,351.25,207.85,346.21,207.85z"/>
				<g>
					<path class="st1" d="M206.94,224.34h-1.22c-2.39,0-4.35-1.96-4.35-4.35v-1.22c0-2.39,1.96-4.35,4.35-4.35h1.22
						c2.39,0,4.35,1.96,4.35,4.35v1.22C211.29,222.38,209.34,224.34,206.94,224.34z"/>
					<path class="st1" d="M221.48,224.34h-1.22c-2.39,0-4.35-1.96-4.35-4.35v-1.22c0-2.39,1.96-4.35,4.35-4.35h1.22
						c2.39,0,4.35,1.96,4.35,4.35v1.22C225.83,222.38,223.87,224.34,221.48,224.34z"/>
				</g>
				<text transform="matrix(1 0 0 1 216.8706 296.2537)" class="st1 st2 st3">CONSTRUCTION</text>
				<text transform="matrix(1 0 0 1 217.057 278.117)" class="st1 st2 st4">UNDER</text>
				<rect x="195.69" y="232.85" class="st1" width="159.69" height="6.09"/>
				<g>
					<rect x="262.83" y="314.41" class="st1" width="27.09" height="9.84"/>
					<path class="st1" d="M257.52,307.41c-4.42,0-8.27,2.41-10.33,5.99h12.73v11.87h-12.73c2.06,3.57,5.91,5.99,10.33,5.99
						c6.58,0,11.92-5.34,11.92-11.92S264.1,307.41,257.52,307.41z"/>
					<path class="st1" d="M293.54,331.25c4.42,0,8.27-2.41,10.33-5.99h-12.73v-11.87h12.73c-2.06-3.57-5.91-5.99-10.33-5.99
						c-6.58,0-11.92,5.34-11.92,11.92S286.96,331.25,293.54,331.25z"/>
				</g>
			</g>
			<path class="st5" d="M275.53,230.86"/>
			<path class="st5" d="M275.53,230.86"/>
		</g>
		<g>
			<path class="st6" d="M365.16,387.39H185.9c-8.38,0-15.24-6.86-15.24-15.24V251.3c0-8.38,6.86-15.24,15.24-15.24h179.26
				c8.38,0,15.24,6.86,15.24,15.24v120.84C380.4,380.53,373.55,387.39,365.16,387.39z"/>
			<rect x="180.05" y="248.64" class="st7" width="190.97" height="112.26"/>
			<path class="st8" d="M345.04,350.35H206.02c-9.06,0-16.41-7.35-16.41-16.41v-85.25h171.84v85.25
				C361.45,343.01,354.1,350.35,345.04,350.35z"/>
			<path class="st6" d="M384,394.56H167.07c-10.22,0-18.5-8.28-18.5-18.5v-2.6h253.92v2.6C402.49,386.28,394.21,394.56,384,394.56z"
				/>
			<path class="st9" d="M241.57,367.52c0,9.04,7.33,16.37,16.37,16.37h35.2c9.04,0,16.37-7.33,16.37-16.37H241.57z"/>
			<rect x="147.74" y="367.44" class="st10" width="255.57" height="6.03"/>
			<rect x="189.32" y="235.9" class="st10" width="172.43" height="12.77"/>
			<g>
				<path class="st6" d="M343.38,342.24H207.69c-6.6,0-12-5.4-12-12V219.85c0-6.6,5.4-12,12-12h135.69c6.6,0,12,5.4,12,12v110.38
					C355.38,336.84,349.98,342.24,343.38,342.24z"/>
				<path class="st8" d="M346.21,207.85H204.85c-5.04,0-9.16,4.12-9.16,9.16v15.83h159.69v-15.83
					C355.38,211.98,351.25,207.85,346.21,207.85z"/>
				<g>
					<path class="st11" d="M206.94,224.34h-1.22c-2.39,0-4.35-1.96-4.35-4.35v-1.22c0-2.39,1.96-4.35,4.35-4.35h1.22
						c2.39,0,4.35,1.96,4.35,4.35v1.22C211.29,222.38,209.34,224.34,206.94,224.34z"/>
					<path class="st12" d="M221.48,224.34h-1.22c-2.39,0-4.35-1.96-4.35-4.35v-1.22c0-2.39,1.96-4.35,4.35-4.35h1.22
						c2.39,0,4.35,1.96,4.35,4.35v1.22C225.83,222.38,223.87,224.34,221.48,224.34z"/>
				</g>
				<text transform="matrix(1 0 0 1 216.8706 296.2537)" class="st12 st2 st3">CONSTRUCTION</text>
				<text transform="matrix(1 0 0 1 217.057 278.117)" class="st12 st2 st4">UNDER</text>
				<rect x="195.69" y="232.85" class="st9" width="159.69" height="6.09"/>
				<g>
					<rect x="262.83" y="314.41" class="st13" width="27.09" height="9.84"/>
					<path class="st13" d="M257.52,307.41c-4.42,0-8.27,2.41-10.33,5.99h12.73v11.87h-12.73c2.06,3.57,5.91,5.99,10.33,5.99
						c6.58,0,11.92-5.34,11.92-11.92S264.1,307.41,257.52,307.41z"/>
					<path class="st13" d="M293.54,331.25c4.42,0,8.27-2.41,10.33-5.99h-12.73v-11.87h12.73c-2.06-3.57-5.91-5.99-10.33-5.99
						c-6.58,0-11.92,5.34-11.92,11.92S286.96,331.25,293.54,331.25z"/>
				</g>
			</g>
			<path class="st14" d="M275.53,230.86"/>
			<path class="st14" d="M275.53,230.86"/>
		</g>
	</g>
	<g>
		<g>
			<g>
				<rect x="360.24" y="337.79" class="st8" width="5" height="52.75"/>
			</g>
			<g>
				<rect x="419.59" y="337.79" class="st8" width="5" height="52.75"/>
			</g>
		</g>
		<g>
			<rect x="356.09" y="344.82" class="st7" width="72.65" height="23.06"/>
			<g>
				<defs>
					<rect id="SVGID_1_" x="356.09" y="344.82" width="72.65" height="23.06"/>
				</defs>
				<clipPath id="SVGID_00000133511086347679178480000010239336766959205026_">
					<use xlink:href="#SVGID_1_"  style="overflow:visible;"/>
				</clipPath>
				
					<rect x="341.02" y="346.7" transform="matrix(0.4376 -0.8991 0.8991 0.4376 -109.3941 525.845)" style="clip-path:url(#SVGID_00000133511086347679178480000010239336766959205026_);fill:#413A64;" width="49.33" height="7.36"/>
				
					<rect x="356.49" y="346.61" transform="matrix(0.4376 -0.8991 0.8991 0.4376 -100.6203 539.7014)" style="clip-path:url(#SVGID_00000133511086347679178480000010239336766959205026_);fill:#413A64;" width="49.33" height="7.36"/>
				
					<rect x="372.16" y="346.53" transform="matrix(0.4376 -0.8991 0.8991 0.4376 -91.7276 553.7453)" style="clip-path:url(#SVGID_00000133511086347679178480000010239336766959205026_);fill:#413A64;" width="49.33" height="7.36"/>
				
					<rect x="387.62" y="346.44" transform="matrix(0.4376 -0.8991 0.8991 0.4376 -82.9538 567.6017)" style="clip-path:url(#SVGID_00000133511086347679178480000010239336766959205026_);fill:#413A64;" width="49.33" height="7.36"/>
				
					<rect x="402.02" y="346.44" transform="matrix(0.4376 -0.8991 0.8991 0.4376 -74.8591 580.5442)" style="clip-path:url(#SVGID_00000133511086347679178480000010239336766959205026_);fill:#413A64;" width="49.33" height="7.36"/>
			</g>
		</g>
	</g>
	<g>
		<path class="st8" d="M255.21,208.44l-1.74-1.4l14.64-18.18v-34.53h2.24v34.92c0,0.26-0.09,0.5-0.25,0.7L255.21,208.44z"/>
		
			<rect x="275.93" y="186.62" transform="matrix(0.7788 -0.6272 0.6272 0.7788 -63.2289 217.667)" class="st8" width="2.24" height="23.74"/>
	</g>
	<g>
		
			<rect x="50.54" y="102.23" transform="matrix(0.7351 -0.678 0.678 0.7351 -47.4067 85.8149)" class="st8" width="71.14" height="2.68"/>
		
			<rect x="172.02" y="37.88" transform="matrix(0.3671 -0.9302 0.9302 0.3671 13.3789 226.8044)" class="st8" width="2.68" height="131.39"/>
		<g>
			<g>
				<rect x="99.6" y="318.51" class="st8" width="25.3" height="2.68"/>
				
					<rect x="93.59" y="332.23" transform="matrix(0.6781 -0.735 0.735 0.6781 -209.0301 189.8789)" class="st8" width="37.32" height="2.68"/>
			</g>
			
				<rect x="110.91" y="314.91" transform="matrix(0.7351 -0.678 0.678 0.7351 -196.4179 164.4776)" class="st8" width="2.68" height="37.32"/>
		</g>
		<g>
			<g>
				<rect x="99.6" y="291.08" class="st8" width="25.3" height="2.68"/>
				
					<rect x="93.59" y="304.8" transform="matrix(0.6781 -0.735 0.735 0.6781 -188.8679 181.0482)" class="st8" width="37.32" height="2.68"/>
			</g>
			
				<rect x="110.91" y="287.48" transform="matrix(0.7351 -0.678 0.678 0.7351 -177.8189 157.2099)" class="st8" width="2.68" height="37.32"/>
		</g>
		<g>
			<g>
				<rect x="99.6" y="263.65" class="st8" width="25.3" height="2.68"/>
				
					<rect x="93.59" y="277.37" transform="matrix(0.678 -0.7351 0.7351 0.678 -168.7247 172.268)" class="st8" width="37.32" height="2.68"/>
			</g>
			
				<rect x="110.91" y="260.04" transform="matrix(0.7351 -0.678 0.678 0.7351 -159.2198 149.9423)" class="st8" width="2.68" height="37.32"/>
		</g>
		<g>
			<g>
				<rect x="99.6" y="236.22" class="st8" width="25.3" height="2.68"/>
				
					<rect x="93.59" y="249.93" transform="matrix(0.678 -0.7351 0.7351 0.678 -148.559 163.4337)" class="st8" width="37.32" height="2.68"/>
			</g>
			
				<rect x="110.91" y="232.61" transform="matrix(0.7351 -0.678 0.678 0.7351 -140.6206 142.6745)" class="st8" width="2.68" height="37.32"/>
		</g>
		<g>
			<g>
				<rect x="99.6" y="206.52" class="st8" width="25.3" height="2.68"/>
				
					<rect x="93.59" y="220.23" transform="matrix(0.678 -0.7351 0.7351 0.678 -126.7265 153.8692)" class="st8" width="37.32" height="2.68"/>
			</g>
			
				<rect x="110.91" y="202.91" transform="matrix(0.7351 -0.678 0.678 0.7351 -120.4847 134.8075)" class="st8" width="2.68" height="37.32"/>
		</g>
		<g>
			<g>
				<rect x="99.6" y="179.08" class="st8" width="25.3" height="2.68"/>
				
					<rect x="93.59" y="192.8" transform="matrix(0.678 -0.7351 0.7351 0.678 -106.561 145.0349)" class="st8" width="37.32" height="2.68"/>
			</g>
			
				<rect x="110.91" y="175.48" transform="matrix(0.7351 -0.678 0.678 0.7351 -101.8851 127.5384)" class="st8" width="2.68" height="37.32"/>
		</g>
		<g>
			<g>
				<rect x="99.6" y="98.92" class="st8" width="25.3" height="2.68"/>
				
					<rect x="93.59" y="112.63" transform="matrix(0.678 -0.7351 0.7351 0.678 -47.6301 119.2181)" class="st8" width="37.32" height="2.68"/>
			</g>
			
				<rect x="110.91" y="95.31" transform="matrix(0.7351 -0.678 0.678 0.7351 -47.5321 106.2997)" class="st8" width="2.68" height="37.32"/>
		</g>
		<g>
			<g>
				<rect x="99.6" y="151.65" class="st16" width="25.3" height="2.68"/>
				
					<rect x="93.59" y="165.37" transform="matrix(0.678 -0.7351 0.7351 0.678 -86.3953 136.2006)" class="st8" width="37.32" height="2.68"/>
			</g>
			
				<rect x="110.91" y="148.05" transform="matrix(0.7351 -0.678 0.678 0.7351 -83.2859 120.2707)" class="st8" width="2.68" height="37.32"/>
		</g>
		<g>
			<g>
				<rect x="151" y="127.69" class="st8" width="2.68" height="25.3"/>
				
					<rect x="137.28" y="121.68" transform="matrix(0.678 -0.7351 0.7351 0.678 -58.5216 147.0857)" class="st8" width="2.68" height="37.32"/>
			</g>
			
				<rect x="119.96" y="139" transform="matrix(0.7351 -0.678 0.678 0.7351 -58.4232 131.1557)" class="st8" width="37.32" height="2.68"/>
		</g>
		<g>
			<g>
				<rect x="67.11" y="127.69" class="st8" width="2.68" height="25.3"/>
				
					<rect x="80.82" y="121.68" transform="matrix(0.678 -0.7351 0.7351 0.678 -76.7022 105.5854)" class="st8" width="2.68" height="37.32"/>
			</g>
			
				<rect x="63.5" y="139" transform="matrix(0.7351 -0.678 0.678 0.7351 -73.3795 92.8786)" class="st8" width="37.32" height="2.68"/>
		</g>
		<g>
			<g>
				<rect x="178.35" y="127.69" class="st8" width="2.68" height="25.3"/>
				
					<rect x="164.63" y="121.68" transform="matrix(0.678 -0.7351 0.7351 0.678 -49.7149 167.1902)" class="st8" width="2.68" height="37.32"/>
			</g>
			
				<rect x="147.31" y="139" transform="matrix(0.7351 -0.678 0.678 0.7351 -51.1784 149.6972)" class="st8" width="37.32" height="2.68"/>
		</g>
		<g>
			<g>
				<rect x="205.78" y="127.69" class="st8" width="2.68" height="25.3"/>
				
					<rect x="192.06" y="121.68" transform="matrix(0.678 -0.7351 0.7351 0.678 -40.8811 187.3554)" class="st8" width="2.68" height="37.32"/>
			</g>
			
				<rect x="174.74" y="139" transform="matrix(0.7351 -0.678 0.678 0.7351 -43.9113 168.2957)" class="st8" width="37.32" height="2.68"/>
		</g>
		<g>
			<g>
				<rect x="233.13" y="127.69" class="st8" width="2.68" height="25.3"/>
				
					<rect x="219.41" y="121.68" transform="matrix(0.678 -0.7351 0.7351 0.678 -32.0752 207.4558)" class="st8" width="2.68" height="37.32"/>
			</g>
			
				<rect x="202.09" y="139" transform="matrix(0.7351 -0.678 0.678 0.7351 -36.6664 186.8371)" class="st8" width="37.32" height="2.68"/>
		</g>
		<g>
			<g>
				<rect x="260.56" y="127.69" class="st8" width="2.68" height="25.3"/>
				
					<rect x="246.84" y="121.68" transform="matrix(0.678 -0.7351 0.7351 0.678 -23.2407 227.6239)" class="st8" width="2.68" height="37.32"/>
			</g>
			
				<rect x="229.52" y="139" transform="matrix(0.735 -0.6781 0.6781 0.735 -29.3876 205.4854)" class="st8" width="37.32" height="2.68"/>
		</g>
		<g>
			<g>
				<rect x="287.91" y="127.69" class="st8" width="2.68" height="25.3"/>
				
					<rect x="274.19" y="121.68" transform="matrix(0.678 -0.7351 0.7351 0.678 -14.4352 247.7239)" class="st8" width="2.68" height="37.32"/>
			</g>
			
				<rect x="256.87" y="139" transform="matrix(0.735 -0.6781 0.6781 0.735 -22.1394 224.0305)" class="st8" width="37.32" height="2.68"/>
		</g>
		<path class="st7" d="M124.9,348.62H99.6c-0.74,0-1.34-0.6-1.34-1.34V99.03c0-0.26,0.07-0.51,0.21-0.73l12.65-19.58
			c0.25-0.38,0.67-0.61,1.12-0.61c0.45,0,0.88,0.23,1.12,0.61l12.65,19.58c0.14,0.22,0.21,0.47,0.21,0.73v248.25
			C126.24,348.03,125.64,348.62,124.9,348.62z M100.94,345.95h22.62V99.43l-11.31-17.51l-11.31,17.51V345.95z"/>
		<path class="st7" d="M321.46,154.33H71.77c-0.74,0-1.34-0.6-1.34-1.34v-25.3c0-0.74,0.6-1.34,1.34-1.34h217.19
			c0.3,0,0.59,0.1,0.82,0.28l32.5,25.3c0.45,0.35,0.63,0.95,0.44,1.49S322.03,154.33,321.46,154.33z M73.11,151.65h244.45
			l-29.06-22.62H73.11V151.65z"/>
		<rect x="93.29" y="121.38" class="st8" width="37.92" height="37.92"/>
		<g>
			<rect x="59.96" y="127.69" class="st8" width="11.8" height="25.3"/>
			<path class="st8" d="M73.11,154.33H58.63v-27.98h14.48V154.33z M61.3,151.65h9.12v-22.62H61.3V151.65z"/>
		</g>
		<rect x="88.19" y="360.75" class="st8" width="48.13" height="29.79"/>
		<polygon class="st8" points="112.23,348.19 98.67,348.19 88.19,360.75 112.23,360.75 		"/>
		<polygon class="st7" points="111.95,348.19 125.51,348.19 136,360.75 111.95,360.75 		"/>
		<rect x="88.19" y="367.68" class="st7" width="48.13" height="3.12"/>
		<rect x="88.19" y="377.73" class="st7" width="48.13" height="3.12"/>
	</g>
	<g>
		<polygon class="st6" points="69.8,353.89 68.95,353.89 66.19,353.89 65.34,353.89 54.52,385.27 66.19,385.27 68.95,385.27 
			80.62,385.27 		"/>
		<g>
			<defs>
				<polygon id="SVGID_00000173851452049783348900000001689870035044630964_" points="69.8,353.89 68.95,353.89 66.19,353.89 
					65.34,353.89 54.52,385.27 66.19,385.27 68.95,385.27 80.62,385.27 				"/>
			</defs>
			<clipPath id="SVGID_00000156566922644057655640000010038280154154037910_">
				<use xlink:href="#SVGID_00000173851452049783348900000001689870035044630964_"  style="overflow:visible;"/>
			</clipPath>
			
				<rect x="53.42" y="355.99" style="clip-path:url(#SVGID_00000156566922644057655640000010038280154154037910_);fill:#EF4D46;" width="29.41" height="5.41"/>
			
				<rect x="53.42" y="366.42" style="clip-path:url(#SVGID_00000156566922644057655640000010038280154154037910_);fill:#EF4D46;" width="29.41" height="5.41"/>
			
				<rect x="53.42" y="376.65" style="clip-path:url(#SVGID_00000156566922644057655640000010038280154154037910_);fill:#EF4D46;" width="29.41" height="5.41"/>
			
				<rect x="52.52" y="383.46" style="clip-path:url(#SVGID_00000156566922644057655640000010038280154154037910_);fill:#E6E7E8;" width="29.5" height="1.81"/>
		</g>
		<rect x="50.92" y="385.27" class="st12" width="33.23" height="5.28"/>
	</g>
	<g>
		<g>
			<g>
				<rect x="169.3" y="385.85" class="st8" width="5" height="52.75"/>
			</g>
			<g>
				<rect x="228.65" y="385.85" class="st8" width="5" height="52.75"/>
			</g>
		</g>
		<g>
			<rect x="165.15" y="392.87" class="st7" width="72.65" height="23.06"/>
			<g>
				<defs>
					<rect id="SVGID_00000134947169245028287880000005934340399428531128_" x="165.15" y="392.87" width="72.65" height="23.06"/>
				</defs>
				<clipPath id="SVGID_00000020378535790320909500000007273988974989377441_">
					<use xlink:href="#SVGID_00000134947169245028287880000005934340399428531128_"  style="overflow:visible;"/>
				</clipPath>
				
					<rect x="150.09" y="394.76" transform="matrix(0.4376 -0.8991 0.8991 0.4376 -259.9766 381.1913)" style="clip-path:url(#SVGID_00000020378535790320909500000007273988974989377441_);fill:#413A64;" width="49.33" height="7.36"/>
				
					<rect x="165.55" y="394.67" transform="matrix(0.4376 -0.8991 0.8991 0.4376 -251.2028 395.0477)" style="clip-path:url(#SVGID_00000020378535790320909500000007273988974989377441_);fill:#413A64;" width="49.33" height="7.36"/>
				
					<rect x="181.23" y="394.58" transform="matrix(0.4376 -0.8991 0.8991 0.4376 -242.3101 409.0916)" style="clip-path:url(#SVGID_00000020378535790320909500000007273988974989377441_);fill:#413A64;" width="49.33" height="7.36"/>
				
					<rect x="196.69" y="394.5" transform="matrix(0.4376 -0.8991 0.8991 0.4376 -233.5362 422.948)" style="clip-path:url(#SVGID_00000020378535790320909500000007273988974989377441_);fill:#413A64;" width="49.33" height="7.36"/>
				
					<rect x="211.08" y="394.5" transform="matrix(0.4376 -0.8991 0.8991 0.4376 -225.4416 435.8905)" style="clip-path:url(#SVGID_00000020378535790320909500000007273988974989377441_);fill:#413A64;" width="49.33" height="7.36"/>
			</g>
		</g>
	</g>
	<g>
		<polygon class="st6" points="365,386.07 364.15,386.07 361.39,386.07 360.54,386.07 349.72,417.45 361.39,417.45 364.15,417.45 
			375.82,417.45 		"/>
		<g>
			<defs>
				<polygon id="SVGID_00000142178576696720864010000008851577690099619001_" points="365,386.07 364.15,386.07 361.39,386.07 
					360.54,386.07 349.72,417.45 361.39,417.45 364.15,417.45 375.82,417.45 				"/>
			</defs>
			<clipPath id="SVGID_00000120559592445094239680000010687000341727112596_">
				<use xlink:href="#SVGID_00000142178576696720864010000008851577690099619001_"  style="overflow:visible;"/>
			</clipPath>
			
				<rect x="348.62" y="388.17" style="clip-path:url(#SVGID_00000120559592445094239680000010687000341727112596_);fill:#EF4D46;" width="29.41" height="5.41"/>
			
				<rect x="348.62" y="398.61" style="clip-path:url(#SVGID_00000120559592445094239680000010687000341727112596_);fill:#EF4D46;" width="29.41" height="5.41"/>
			
				<rect x="348.62" y="408.84" style="clip-path:url(#SVGID_00000120559592445094239680000010687000341727112596_);fill:#EF4D46;" width="29.41" height="5.41"/>
			
				<rect x="347.72" y="415.64" style="clip-path:url(#SVGID_00000120559592445094239680000010687000341727112596_);fill:#E6E7E8;" width="29.5" height="1.81"/>
		</g>
		<rect x="346.12" y="417.45" class="st12" width="33.23" height="5.28"/>
	</g>
</g>
<g id="DESIGNED_BY_FREEPIK_1_">
</g>
</svg>
